<svg xmlns="http://www.w3.org/2000/svg" viewBox="0 0 512 512"><title>Artboard 148</title><g id="Coffee_Bean" data-name="Coffee Bean"><ellipse cx="234.66667" cy="170.66667" rx="215.98397" ry="145.44921" transform="translate(-30.76044 53.43183) rotate(-12.19711)" style="fill:#5b2c06"/><path d="M426.22591,132.96322a21.33546,21.33546,0,0,0-21.20247,19.22168c-2.87891,28.91959-25.4694,59.30761-61.97787,83.37174-.13737.09017-.27213.18132-.40625.27409-.13867.08626-.27734.17448-.41471.264-31.74675,20.7194-71.6862,34.72754-112.46094,39.44433a267.47443,267.47443,0,0,1-30.61393,1.79427c-30.28906,0-58.54753-5.47037-81.722-15.81966a21.33326,21.33326,0,0,0-17.39843,38.958l.00065.00033q1.23047.54931,2.47656,1.085l.0013.00032c.11068.04785.22005.09473.33138.14225l.0013.00033q.91212.39063,1.834.77344l.00651.0026c.112.04655.2207.09147.33268.138l.0013.00033q.166.06885.33073.13639l.00977.00423c.11068.04525.2207.0905.33138.13574l.0026.001c.11068.04525.222.09082.33269.13574l.00781.00326c.10872.04427.2207.08952.33008.13379l.00911.0039c.10938.04428.22005.08887.32943.13282l.01041.00423c.11133.04459.21875.08821.33073.13281l.00651.00261c.2793.11165.5625.2246.8431.33528l.00521.00195c.11133.04428.22005.08724.332.13119l.01107.00423c.11.0433.22266.08724.33268.13054l.00847.00292c.11.0433.224.08757.33463.13054l.00651.0026c.11068.043.22461.08757.33529.13021l.00846.00326c.11068.043.22266.08593.33334.12858l.01237.00455q.166.064.33268.12761l.01041.00423c.05534.02116.10873.04167.16472.06283l.0013.00065c.05534.02116.112.04264.168.0638l.01042.00391c.054.0205.10546.04.15885.06054l.00976.00358.16537.06283.01237.00456.15169.05729.01888.00716c.054.02018.10742.04069.16146.06087l.015.00554.153.05761.015.00554c.10808.04069.21875.082.32683.12239l.02343.00847.32487.12141.02149.00782c.10872.04.21614.08008.32487.12011l.02344.00879.32552.1198.02278.00813c.10873.04.2181.08008.32683.1198l.02018.00748c.11067.04037.22005.08008.33073.12012l.01692.00618c.10873.03972.2194.07976.32878.11914l.02539.00912.14974.054.01367.00488.16406.05924.01888.00651c.05274.01888.10352.03711.15625.05632l.00912.00293c.05469.01986.112.04.16667.05957l.01823.00651c.04882.01758.09765.03483.14713.05241l.02474.00911c.05469.01953.10872.03874.16406.058l.00781.00293c.05079.01822.10287.03678.1543.05468l.02539.00912.16211.05729.01172.00423c.05143.0179.10221.03613.15365.054l.02474.00879q.16211.05664.32421.11393l.0306.01042q.16212.05664.32487.11328l.02735.00976c.10612.03679.21679.0752.32356.112l.03256.01139.14258.04948.02083.00717c.05338.01822.10612.03645.1595.055l.02995.01009c.04948.01693.097.03353.14714.05045l.01627.00586.16341.05567.02344.00814c.04818.0166.09961.03418.14779.05045l.02213.00749c.05534.01888.10743.03678.16276.05534l.02214.00781.14583.04948.02474.00846c.05339.01823.10612.03581.15951.054l.0319.01074c.043.01432.08789.02962.13021.04395l.04036.01334c.05143.01758.10612.03581.15755.05339l.01888.00618c.04818.016.09245.03125.14063.0472l.03841.013.1582.05274.01888.00618c.04623.01563.097.03256.14323.04786l.03646.01237.16146.05371c.00521.00162-.0026-.001.00195.00065l.15886.05273.03385.01107c.05339.0179.10807.03581.16211.05371l.00195.00065c.05209.01725.10417.03451.15625.05143l.04232.014c.10612.03483.21289.07.319.10449l.03711.01237c.04818.01595.09831.0319.14649.04785l.01562.00521.16211.05274.03255.01074c.05078.01628.09636.03125.14649.04753l.01757.00553.16342.05306.02929.00944c.04883.01562.09766.03157.14584.0472l.02278.00716c.054.01758.10677.03451.16081.05176l.03451.01107.13867.04459.026.00847c.056.0179.10742.03418.16341.05241l.026.00813c.04688.015.09505.03028.14128.04525l.0332.01042c.05469.01758.10677.03418.16146.05143l.02344.00749.14062.04459.03711.01172.16016.05078.02018.00619c.04687.015.097.0306.14388.04525l.03971.01269.1569.04948.026.00814c.04362.01334.08984.028.13346.04166l.04818.0153.15625.04851.00846.00293c.05273.01627.10352.0319.15625.0485l.03841.012.15951.04948.00195.00065.16406.05078.03581.01107c.05143.01563.09831.03028.14974.04623l.01562.00488.16211.0498.03842.01172c.04492.014.09244.02865.138.04232l.02734.00846c.05534.01693.10807.03288.16276.04981l.02995.00911.14518.04427.02669.00814c.05534.0166.10743.03288.16276.04948l.0319.00944c.04558.014.0931.02832.13868.042l.0332.01009.16276.04916.02669.00814.14128.04264.03581.01074q.082.0249.16406.04916l.01758.0052c.04948.015.09505.02865.14453.0433l.04232.01269c.05273.01595.10546.03158.15885.04753l.02409.00684c.04752.01432.0944.02832.14193.04231l.04166.01237c.05469.0166.10547.03158.16081.04785l.01367.00391.14844.04395.04427.013c.05339.01562.10872.0319.16146.04785l.0026.00065c.05339.01562.10417.03027.15755.04622l.04883.01433c.05339.01562.10222.02994.15625.04557l.002.00065.16211.0472.04622.01367.14583.04232.01563.00456c.05338.01562.11067.03222.16471.04752l.03906.0114c.04753.014.09245.02669.14.04069l.02669.00748.16081.04623.04166.012c.04558.01335.09245.0267.13868.03972l.02864.00846.16146.04622.03971.01107c.04558.01335.08985.02572.13607.03906l.03255.00912c.05339.0153.10547.03027.15951.04557l.04427.0127.1276.0358.04232.01205c.05339.0153.10677.03027.16081.04557l.02864.00814.14193.04.03581.01009.16732.04655.01432.00423c.05208.01465.10547.02962.15755.04395l.0293.00846c.05794.01595.11263.03125.17057.04753l.00781.002.15886.04427.03776.01042c.05534.01562.10937.03027.16536.04589l.00977.00261.15755.04362.04037.01107.1608.04427c.00521.0013-.00065,0,.00456.0013l.16667.04557.04036.01107.14063.03841.02994.00814c.054.015.10743.0293.16146.04394l.04167.01172c.04687.01237.0918.02474.13867.03744l.0306.00814c.054.015.10742.02929.16146.04394l.04232.01139.13281.03581.03971.01074.15886.04265.04362.01172c.04231.01139.08789.02343.13086.03515l.03971.01042c.054.01465.10677.02864.16146.04329l.03841.01009.13346.03549.04232.01139c.054.01432.10872.029.16341.04329l.028.00749.14127.03711.04232.01139.16211.04265.03.00781c.04492.01172.0931.02441.138.03646l.04752.01237.16342.04264.01432.00391.15364.03971.041.01074c.05664.015.11068.029.16732.04362l.00521.0013.15885.04135.04948.01269.14779.03809.01757.00455c.05274.01368.10743.02767.16016.041l.054.014.12955.0332.03646.00944.15625.03971.05794.015.11915.03027.04622.01172c.05143.013.10482.02669.1556.03939l.05273.01334.1224.03093.04883.01237c.05078.013.10351.026.15429.03906l.054.01335.12305.03092.04427.01107c.05534.01367.10612.02669.16146.04036l.04362.01107.1263.03125.05078.0127.1569.03906.04818.01172c.03906.00976.082.02051.12109.03l.054.01334.15755.03907.04036.00976c.04362.01074.08529.02116.12891.03158l.054.01334.15755.03874.03711.00879c.043.01074.08724.02148.13086.0319l.054.01335.151.03645.0332.00814c.04948.012.0957.02344.14518.03516l.05013.012c.04948.012.097.02377.14649.03548l.02148.00521.16146.03874.05208.0127c.04557.01074.09375.02213.13932.0332l.0293.00716.16472.03906.04687.01107.13216.03158.04037.00944c.05338.01269.10872.026.16211.03841l.04427.01074c.04752.01107.09049.02116.138.03255l.03646.00847c.054.01269.11067.026.16406.03841l.04687.01106.12631.02963.04817.01139c.054.01237.10873.02539.16276.03776l.04037.00944c.04362.01042.09049.02116.13411.03125l.04557.01042c.05534.013.11.02571.16537.03841l.03255.00749.13672.03157.05143.012c.05209.01171.10873.02506.16081.03678l.03711.00846.13411.03093.054.012c.05339.01237.10612.02442.15951.03646l.0358.00846c.04427.00977.08659.01953.13021.0293l.0599.01367.14713.03321.041.00944.14127.03157.05339.01237c.05013.01107.10221.02279.15234.03418l.015.00326c.056.01269.10742.02408.16341.03645l.056.0127c.04557.01009.0944.02116.14062.03125l.0267.00618.16862.03711.04427.00977.14.03125.03516.00781c.05208.01139.10742.02344.1595.03516l.05794.01269.127.02767.04427.00977c.054.01172.10612.02311.16015.03515l.05534.01205.1237.027.04753.01009.1595.03483.05664.012.12045.026.05338.01172.16081.03451.04687.01009.125.02669.056.01205c.05274.01106.10547.02246.15821.03385l.04882.01042c.04232.00879.08529.0179.12761.027l.054.01139c.054.01172.10678.02279.16146.03418l.03776.00814c.04427.00911.08985.01888.13412.02832l.05338.01106c.04883.01042.09831.02084.14714.03093l.05338.01107c.04428.00944.0892.01888.13347.028l.05859.01237.14584.03027.02213.00456.16211.03386.06055.01237.12174.02539.054.01106c.05273.01075.10416.02149.15625.03223l.056.01139.12825.02637.04427.00912q.082.01659.16407.03352l.04882.00977.13021.02669.05078.01009.16016.03256.05339.01074.12369.02474.05339.01074.1582.0319.0599.012.112.02246.0664.01334c.05339.01042.10352.02051.15625.03093l.05274.01041.11914.02377.06055.012.16015.03158.04818.00944c.041.00813.08268.01627.1237.02409l.06315.01269c.05273.01009.10677.02083.1595.03125l.03776.00716.13542.02637.05534.01074c.05078.01009.09961.01953.151.0293l.04883.00944.13541.02637.06316.012.14257.02734.02735.00521c.05469.01074.10807.02084.16276.03125l.05664.01107.13411.02539.04167.00781.16211.03093.05859.01106.12761.02409.04557.00879c.05339.00977.10872.02051.16211.03028l.05729.01074c.04037.00781.08659.01627.12761.02409l.04882.00911.16081.02995.06055.01139.123.02279.04883.00911.16407.03028.056.01041c.041.00749.08073.01465.12175.02246l.05794.01042.16146.02962.05339.00977.123.02246.05664.01042c.05534.01009.10743.01953.16276.02929l.04883.00912.12761.02278.06119.01107c.05144.00944.10222.01856.15365.02767l.05729.01042.1224.02181.06185.01107.14713.02636.05469.00944.13411.02409.0625.01074.14388.02572.03256.00553.1608.02832.0586.01042c.04557.00781.08854.0153.13346.02344l.04232.00716.16211.02832.06445.01107.11393.01985.0612.01075c.054.00911.10547.0179.15886.02734l.05924.01009.12695.02181.05209.00879c.05534.00977.10872.01856.16471.02832l.05273.00879c.043.00749.08464.01465.12826.02181l.05208.00911.16667.028.04883.00846c.04362.00716.08724.01433.13021.02181l.05533.00912.16732.02832.04232.00683c.04362.00749.08984.015.13281.02214l.058.00976c.054.00879.11263.01856.166.02767l.03971.00651.13933.02279.054.00912.16862.02766.03451.00554.13932.02279.0599.00976.16015.026.03581.00586.14649.02376.05924.00944c.05013.00814.10417.01693.15365.02474l.01888.00326c.05664.00879.11.01758.16666.02669l.06446.01009.13541.02181.03776.00586.16927.027.056.00879.13282.02083.04557.00716.16471.02605.0586.00911.13281.02083.04687.00717.16537.02571.05794.00912c.04427.00651.08659.01334.13021.01985l.04818.00749c.056.00879.11132.01725.168.02572l.05468.00846c.04362.00684.08594.01335.12956.01986l.05273.00813c.05665.00847.11263.01726.16928.02572l.04622.00684c.04557.00716.08789.01367.13411.0205l.05469.00814.16862.02539.04167.00619c.04622.00716.0944.01432.14062.02116l.05339.00781.16927.02539.03906.00586.138.02051.0599.00879c.04818.00716.09245.01367.14062.0205l.07487.01107.12631.01856.0651.00944c.04818.00716.095.014.14323.02083l.04362.00651.15495.02246.0638.00912c.04362.00651.08463.01237.1289.01855l.04883.00716.16732.02377.05729.00813.13477.01953.04427.00619c.05729.00814.11458.01628.17122.02409l.05078.00716c.04623.00684.09115.013.138.01953l.04818.00684c.05664.00781.11263.01595.16992.02376l.05013.00716c.04623.00619.08985.01237.13607.01888l.04948.00684.17057.02343.04883.00684.13737.01921.05013.00651.17448.02409.03646.00488c.04883.00683.097.01334.14518.01985l.05143.00684c.0586.00814.11459.01563.17383.02376l.03451.00456.14843.01986.05079.00683c.05924.00782.11783.01595.17708.02377l.01823.00228c.05729.00781.11.01464.16666.02246l.03972.0052c.06185.00814.12305.01628.18424.02409l.00651.001.17318.02279.04948.00651.35937.04655.04818.00651.15951.0205.02343.00293c.05925.00782.11719.015.17644.02279l.05273.00651.14779.01888.0332.00423.17578.02214.05078.00651.14258.0179.043.00554.17318.02148.05078.00651c.04687.00554.0957.01172.14258.01758l.04231.00521.17383.02148.05339.00651.13086.01595.05794.00716c.05794.00717.11068.01368.168.02051l.054.00651c.04492.00554.08658.01074.13151.016l.056.00684.17187.02051.043.00521.14128.01692.05664.00684.16992.02018.04362.00521.14062.0166.05534.00619.17513.02083.02735.00293c.05078.00618.10156.01172.15234.0179l.05989.00684c.05079.00586.10808.01237.15886.01855l.02344.00261c.05794.00651.11523.013.17317.01985l.054.00619.14844.01693.0358.0039.17513.01986.05339.00618c.04492.00489.09375.01042.13867.01563l.04753.00521c.05794.00651.11523.013.17318.0192l.05013.00586.14518.016.04427.00489c.05794.00651.11458.01269.17252.01888l.0573.00618c.043.00488.08593.00944.12825.01432l.05794.00619c.056.00618.11524.01237.17123.01855l.05208.00554.13412.01465.05729.00618.17448.01855.04166.00424c.04688.0052.09375.01009.14063.015l.05664.00619c.05859.00618.11719.01237.17513.01822l.03841.00424.14649.0153.05468.00586.17709.01822.02864.00293.15235.01563.05729.00586c.05859.00618.11849.01237.17643.01823l.02409.00228.1595.01627.05469.00554.166.0166.02018.00228.17318.01725.05729.00553.1556.01563.02734.0026c.05859.00586.11979.01172.17773.01758l.056.00553.14323.01368.04167.00423c.056.00553.11263.01107.16862.01627l.069.00684c.043.00391.082.00781.12565.012l.05794.00554.168.01595.06315.00586.12761.012.05729.00554.168.01562.0651.00619.12435.01171.06185.00554.17122.016.05339.00488.13281.01205.0586.0052c.05859.00554.11458.01042.17317.01563l.04818.00456.14258.01269.05273.00488c.06055.00521.11654.01042.17774.01563l.03776.00358.14778.013.05664.00488.15951.014.0599.00521.13867.012.06445.00554.15885.01367.0293.0026.168.01433.0625.00521c.04753.00423.09245.00781.14063.012l.04492.00358.17383.01465.05794.00488.14648.012.03841.00325c.0612.00488.11784.00977.17839.01465l.05273.00423.14388.01172.04883.00391.17578.01432.05209.00423.14257.01139.04818.00358c.0586.00489.11654.00944.17513.014l.05794.00456.13086.01042.0625.00488.17123.013.056.00456.1289.00976.06576.00521.16927.0127.05729.00423.12956.00976.06641.00521.17187.0127.04362.00325.14258.01042.06054.00456.17318.01269.03841.00261c.05013.0039.097.00716.14714.01074l.06836.00488c.05273.00391.10156.00716.15364.01107l.03842.0026c.05468.00391.10807.00782.16276.0114l.06575.00488c.04818.00325.0957.00651.14388.01009l.04037.0026.17578.01237.0612.00424.14583.00976.03906.00261c.05925.00423.11914.00813.17839.01237l.05664.00358.14518.00976.04492.00293.17774.01172.05533.00391.14779.00944.03971.0026.1836.012.04752.00293c.04818.00326.09831.00619.14649.00944l.05078.00326c.05924.00358.11979.00749.17969.01139l.04687.00293.14518.00879.05274.00326c.05924.0039.12044.00748.17969.01106l.041.00261.15235.00944.05143.00293c.06185.0039.11914.00716.181.01107l.03841.00228c.05273.00292.10091.00585.1543.00911l.04882.00293.18425.01074.0293.00163c.05338.00293.11.00651.16276.00944l.04948.00293c.06184.00325.123.00683.18489.01042l.00391.00032q.09277.00489.18554.01042l.05339.00293.16016.00879.02994.00162c.06185.00358.1211.00684.18295.0101l.05338.00292.151.00814.04037.00228.18034.00944.05338.00293c.04818.00261.10222.00554.15039.00781l.043.00228c.0599.00326.12175.00651.18164.00944l.05209.00261.14453.00748.04948.00261c.06184.00293.11979.00586.18164.00911l.04752.00228.14779.00716.05143.00261.18229.00911.04362.002.14388.00684.06055.00293.17839.00846.04166.002.15169.00716.054.00228.18229.00846.03581.00163.15365.00683.05664.00261.18359.00814.02279.001.16666.00716.056.00261.17774.00749.013.00065c.05989.00228.11849.00488.17838.00748l.0612.00261c.05339.002.10677.00423.16016.00651l.028.001c.0599.00261.12435.00521.18425.00749l.05468.00228.155.00619.03581.0013c.0625.0026.12044.00488.18294.00716l.05469.00228.153.00586.03971.0013.18229.00683.056.00228.14714.00521.04492.00163c.06054.00228.12239.00456.18229.00651l.05534.00228.14258.00488.05273.002.18359.00619.04493.00163.15039.00488.05013.00195.18619.00586.03581.0013.16211.00521.04622.00163.18881.00586.026.00065c.056.002.11133.00358.16732.00521l.04948.00163.18684.00553.02865.001.16536.00455.05144.00163.38086.01074.05013.00131c.056.00162.11263.00325.16862.00455l.026.00065c.0625.002.12565.00359.18815.00521l.04948.0013.1582.00391.03776.001.1849.00455.05208.00131.151.00358.04753.0013.181.00391.056.0013.14844.00358.04492.001.1875.0039.04492.001c.05143.0013.10091.00228.153.00325l.05079.001.18619.00391.03972.001.1556.00293.05143.001.18685.00358.03646.00065.1582.00293.05338.001c.06315.001.12435.002.1875.00325l.0267.00033.17057.00293.04557.00065.19206.00293.01888.00032c.05859.001.11458.002.17318.00261l.05468.001c.12631.00163.25391.00359.38021.00521l.05339.00065c.05664.001.11133.00163.168.00228l.02669.00033.18685.00228.05534.00065.16146.00195.03125.00033.1875.002.05338.00065c.05208.00033.10547.001.15755.00163l.03841.00032c.0612.00033.127.001.18816.00163l.05013.00033c.05208.00065.10416.001.15625.0013l.041.00032c.06315.00066.12565.00131.1888.00163l.04818.00033.15365.001.04817.00033c.06381.00065.1237.001.18685.0013l.04558.00033c.05013.00032.10416.00065.15364.00065l.05078.00032.18815.001h.03711c.05209.00033.10742.00065.15951.00065l.054.00033.18425.00065h.04167l.1582.00065h.04948c.0638,0,.12825.00032.1914.00032h.02344l.17383.00033h.24349a309.18377,309.18377,0,0,0,35.51693-2.07682h0l.16015-.01856.05013-.00586.11-.01269.06055-.00716.10481-.01237.056-.00651.10222-.012.06575-.00749.11784-.014.03841-.00456c.05013-.00618.10417-.01237.1543-.01855l.06445-.00749.09636-.01139.07226-.00879.08268-.00977.08008-.00977.08334-.01009.07421-.00879c.0293-.00358.06055-.00748.08985-.01074l.097-.012c.03581-.00423.08529-.01009.1211-.01465l.07877-.00944.07748-.00944.08724-.01074.07226-.00879.08138-.01009.07943-.00977.08333-.01009.06641-.00846q.1709-.021.3418-.04232l.04622-.00586c.0332-.00391.069-.00846.10156-.0127l.054-.00683.09766-.012.06184-.00781.09571-.012.05078-.00651.36263-.0459.03516-.00456.10937-.014.04687-.00586c.03581-.00488.06771-.00878.10352-.01334l.05078-.00651.10742-.014.03321-.00423c.11979-.0153.24479-.03158.36523-.0472l.04948-.00651.10286-.01335.04688-.00618.11-.01465.04231-.00554.11133-.01432.03581-.00488c.17708-.02344.35807-.0472.5345-.071l.02019-.0026.11849-.01595.03841-.00488.11588-.01563.02735-.0039c.18229-.02442.36067-.04851.543-.07325l.01627-.00227.12305-.01693.0306-.00423.125-.01693.01172-.00163c.18554-.02539.373-.05143.55794-.07715l.01042-.0013.125-.01758.028-.0039.1224-.01693.02474-.00358.1263-.01758.00325-.00065q.28223-.03956.56315-.07943l.01237-.002c.04493-.00619.08985-.0127.13477-.01921l.00781-.001c.23307-.03321.4694-.06739.70182-.10091l.015-.00228.13542-.01953.00325-.00066c40.70573-5.91959,78.45052-19.36946,110.127-37.84082l.00326-.00227.10807-.06283.00391-.0026c.14388-.084.2845-.166.42773-.25033l.02018-.01139.09506-.05567.01953-.01172.0944-.05533.02018-.01205c.13412-.07877.27084-.15918.40495-.23828l.0345-.02018.08334-.04916.03255-.01953.08333-.04915L355.60742,278l.08529-.05046.00976-.00586c.099-.05859.19662-.11621.29558-.17513l.03646-.02148c.02734-.0166.05273-.03125.08007-.04785l.03776-.02246c.028-.01628.05078-.02995.07813-.04623l.04232-.02506c.02539-.0153.05273-.0319.07812-.04688l.04167-.02441c.02474-.0153.04818-.029.07291-.04395l.06446-.03841c.03711-.02181.07487-.04459.11133-.0664l.06054-.03614.05534-.0332.069-.04134.04818-.02865.08268-.04948.04167-.02539.082-.04915.04167-.02474c.04362-.026.07421-.0446.11783-.071l.03191-.01921.09375-.056.03906-.02376.08333-.05013.041-.02474c.02734-.01628.05664-.03418.084-.05078l.04232-.02539.10612-.06413.01042-.00619.12825-.07747.00716-.00456c.03841-.02311.07813-.0472.11589-.07031l.0319-.0192.08789-.05306.04036-.02474.0931-.05664.02735-.01628.11979-.07292h0c.13086-.07942.25911-.15755.38932-.237l.00521-.00325c.04362-.02669.07812-.04785.12174-.07422l.00977-.00619c.17383-.10612.34049-.20833.51367-.31477l.00586-.00358c.25977-.15951.51563-.31771.77474-.47787l.00065-.00033q2.69532-1.66894,5.32227-3.38378c.1569-.10254.31054-.20606.46354-.31185q.22266-.13819.44336-.28288a234.493,234.493,0,0,0,33.61979-26.696l.00521-.00554c.03385-.03222.0625-.06022.09635-.09277l.00521-.00456.09505-.0918.00716-.00716c.03386-.03255.0612-.05859.09441-.09114l.00716-.00651c.0332-.03256.05924-.05762.0931-.09017l.00911-.00912c.36979-.35774.72656-.7054,1.09245-1.06478l.00781-.00748.08594-.08431.01823-.01823c.02539-.02474.05859-.05762.084-.082l.01563-.01628c.02539-.02441.05729-.056.082-.0804l.02213-.02214c.02539-.02441.054-.05338.07943-.0778l.02083-.02051.07943-.07877.02214-.02181c.02929-.02865.05143-.05111.08073-.07975l.015-.015c.0293-.02864.05729-.057.08659-.08561l.01107-.01107.08919-.08854.00781-.00781c.0293-.02865.06315-.06283.0918-.09147l.002-.00163c.12761-.12695.25781-.25651.38477-.38379l.00976-.00977c.02865-.02864.06055-.06054.08985-.08919l.00911-.00976c.0293-.02865.05729-.057.08594-.08562l.015-.0153.07748-.07779.02669-.02637.06706-.06771.0358-.03548.06641-.06738.03255-.03288.06836-.068.03125-.0319c.02409-.02474.04557-.0459.06966-.07064l.0319-.0319c.02019-.0205.04427-.04492.06511-.06543l.03776-.03841.06575-.0664.028-.02832c.02409-.02474.04752-.04851.07226-.07325l.02344-.02376.07748-.07878.01041-.01041.08789-.08887.01042-.01074c.08919-.09082.18359-.18685.27279-.278l.00976-.00976c.02409-.02507.04492-.04623.069-.071l.0332-.03385c.02474-.02474.04167-.04232.06576-.06706l.03255-.0332.06511-.06641.0358-.03678.06315-.06478.03581-.03678.06185-.06315.041-.04232c.01627-.0166.03971-.04069.05534-.05729.01562-.0153.02994-.0306.04492-.04623.01627-.01627.03841-.03939.05468-.056l.04688-.04785.05273-.05436.04623-.04818c.01627-.0166.03646-.03711.05208-.05371.01758-.0179.03646-.03776.054-.05534l.04427-.0459.056-.05826c.01237-.01237.03255-.03353.04427-.0459.02148-.02214.04167-.04265.0625-.06511l.03581-.03645.08333-.08659.01628-.0166c.03385-.03581.0664-.06934.10026-.10482l.01237-.01237c.02734-.029.05924-.06218.08724-.09082l.03125-.03321c.02343-.02441.04492-.04622.06835-.071l.03516-.03646c.02149-.02246.04232-.04394.06315-.0664l.043-.0446c.01888-.01986.03646-.03841.056-.05827.01563-.0166.026-.028.04232-.04459.01888-.01986.03841-.03972.05729-.0599l.043-.04525c.01953-.02018.03646-.03808.05534-.05827l.043-.04492.056-.05859.04492-.0472.05468-.05762.04232-.04427.05729-.06055.04232-.04427.05925-.06315c.01237-.01237.02539-.02637.03711-.03874.02083-.02246.043-.04557.0638-.0677l.03515-.03744.07162-.07552.026-.027c.02474-.027.05339-.05664.07878-.08333l.02018-.02214c.06771-.07161.13151-.13932.19857-.21093l.01237-.013.08658-.09244.02084-.02181c.02539-.0267.05078-.05436.07617-.08138l.02865-.03028c.02474-.02669.04687-.05013.07226-.07715l.02474-.02669c.02344-.02474.04818-.0511.071-.07584l.03256-.03483.0664-.07129.0306-.03256.06836-.07356.02865-.03093c.02343-.02441.04687-.0498.06966-.07454l.03125-.03353.06185-.06673.03776-.04.06575-.07129.02865-.03093c.02734-.02929.04883-.0524.07552-.0817l.02018-.02181c.0293-.03125.05729-.0612.08594-.09277l.01172-.01205c.166-.17969.32812-.35579.49349-.53613l.00651-.00716c.03125-.03353.06055-.06576.09114-.09961l.00912-.00977c.0293-.03157.05924-.06478.08854-.09635l.01367-.015.08268-.09049.01693-.01856.07943-.08724.01953-.02148.07943-.08659.01627-.01855.08138-.08887.01693-.01921.07813-.08561.02018-.02213c.02669-.0293.05143-.05632.07747-.08562l.01888-.02083c.25847-.2845.51823-.57292.77344-.8584l.013-.01432c.02865-.0319.05664-.06315.08464-.09505l.01106-.01172c.028-.0319.05469-.06152.08334-.09343l.01562-.01757c.02865-.0319.05274-.05892.08073-.09082l.01563-.01693c.028-.0319.05273-.05957.08073-.09115l.01432-.01562c.028-.0319.056-.06348.08463-.09538l.01042-.01172.08594-.09668.00976-.01107c.32227-.36328.63867-.723.95769-1.08789l.0026-.00325a162.59061,162.59061,0,0,0,22.66276-33.113h0q.42677-.83886.83919-1.67871l.002-.00358c.01953-.04.03711-.07487.05664-.11491l.00325-.00683c.01693-.03516.03581-.07292.05274-.10808l.00781-.01627c.01758-.03516.03515-.071.05208-.10612l.00521-.01074c.01693-.03516.03711-.0752.054-.11036l.0039-.00846.05469-.1123.00326-.00717.05533-.11393.00261-.00553c.11653-.24056.23112-.47852.34635-.71973l.00326-.00716c.01692-.03516.0358-.07585.05273-.111l.00716-.01433c.01628-.03515.03125-.06608.04753-.10123l.01237-.02572.04492-.09407.01042-.02279c.01562-.03255.0306-.06348.04557-.09635l.01172-.02409c.01432-.02995.02995-.06315.04362-.09343l.013-.02669.04167-.08919.015-.0319.04362-.09213.01042-.02278.04752-.10091.00782-.01758.05273-.113c.0026-.00488,0,.001.00195-.00358.09245-.19889.18555-.39941.27735-.59831l.01172-.02539c.01367-.02994.02929-.06478.04362-.09472l.01106-.02474.04167-.09115.01563-.03353.03906-.08593.01562-.03353c.01237-.02767.02474-.05534.03776-.083l.01693-.03679c.01237-.02766.02474-.055.03776-.083l.01628-.03679c.013-.028.02278-.05013.0358-.0778l.01888-.04231.03516-.07748.01823-.04069c.01172-.02506.02279-.05078.0345-.07617l.01888-.04232c.01172-.02539.02474-.055.03646-.08008l.01693-.03743.03906-.08691.01367-.0306.04753-.10677.00456-.01075c.03646-.08073.071-.15885.10742-.23958l.00846-.01888.043-.09733.01888-.04232c.01107-.02539.02149-.04948.03321-.07454l.02083-.04785c.00976-.02279.02083-.04655.0306-.06934l.02344-.05306.02864-.06445c.00781-.01888.01432-.03353.02279-.05241l.02864-.06511.02409-.054c.00977-.02279.01758-.04134.028-.06413.00781-.01888.01432-.0332.02278-.05208l.02865-.06641.02344-.05339.028-.06477.02279-.05144.02864-.0664.02344-.05371.028-.06511.02213-.05045.03-.069.02148-.05079c.01107-.02539.02214-.05013.03256-.07552l.01757-.04.04037-.09407.01107-.02507c.01692-.04036.03385-.0791.05078-.11946l.00325-.00716c.015-.03549.03125-.07259.04623-.10808l.01953-.04557c.01041-.02539.02083-.0485.03125-.07389l.02018-.04623c.00911-.02278.02018-.04752.0293-.07031.00846-.01888.01432-.03288.02213-.05176.00977-.02278.01888-.04362.028-.0664.00846-.01888.01627-.03776.02409-.05664.00911-.02051.01562-.03679.02408-.057.01042-.02376.01693-.03939.0267-.06315l.02409-.05664c.00781-.01888.01692-.041.02539-.0599l.02408-.05729.02474-.05989c.00782-.01791.01758-.041.02474-.05892l.02539-.06088.02214-.05241c.00977-.02376.01758-.04264.028-.0664l.02084-.04981.028-.06868.02019-.04688.02864-.06966.01888-.04655c.01042-.02343.02083-.04915.0306-.07291l.01042-.02539c.041-.09994.08528-.20573.1263-.30567l.00521-.014.03841-.09277.00911-.02311.03516-.08594.013-.03157c.01172-.02865.02214-.05339.0332-.08171l.015-.03581.03125-.07747.01627-.04037.0319-.07845.015-.03711.0332-.08105.01367-.03418c.01107-.02832.02149-.05436.03321-.083l.01432-.03515.0319-.07878.01563-.03939c.00976-.02376.02213-.056.0319-.07975l.01367-.03386c.00976-.02408.02344-.05957.0332-.08333l.01172-.02995c.01172-.02864.02474-.06119.03581-.08984l.00651-.01562c.013-.03321.02669-.06641.03971-.09961l.00456-.01172c.05664-.14291.11719-.29558.17318-.43848l.0039-.00977.03711-.09407.00846-.02279c.01107-.02864.02409-.06022.03516-.08886l.01107-.02865.03516-.0905.00976-.02441.03451-.08854.01171-.0306.03321-.08659.01107-.028.0345-.08952.01042-.02735.0345-.08886.01042-.0267.03516-.09082.00911-.02408c.01237-.03353.02344-.0612.03581-.09473l.00586-.01465c.013-.03353.02669-.06966.03971-.10286l.002-.00554c.10157-.26725.20052-.529.30078-.79687l.00066-.002c.01237-.03352.02734-.07194.03971-.10546l.00456-.012.03776-.10189.00521-.01464.0371-.09994.00652-.0166c.01367-.03841.02343-.06348.0371-.10156l.00521-.0127c.01367-.03809.02344-.0638.03711-.10221l.00586-.01433c.01237-.03352.02539-.07.03776-.10319l.00391-.00976c.01367-.03841.02474-.06869.03906-.10677l.002-.00619c.168-.45931.33138-.91341.49414-1.37369l.00131-.00391a114.14981,114.14981,0,0,0,6.03971-26.76823,21.33474,21.33474,0,0,0-19.12305-23.26758q-1.07715-.10742-2.13867-.10644Z" style="fill:#3d180b"/><ellipse cx="220.83959" cy="216.05962" rx="164.56053" ry="104.00226" transform="translate(-40.66298 51.53519) rotate(-12.19711)" style="fill:#69341c"/><path d="M252.29167,129.9375a228.18223,228.18223,0,0,0-27.4375,1.69792h0l-.11459.014-.02213.00261a236.66057,236.66057,0,0,0-55.84961,13.88086,21.33312,21.33312,0,1,0,15.29362,39.83105,193.06721,193.06721,0,0,1,45.84375-11.374,185.48667,185.48667,0,0,1,22.28646-1.38574,21.33334,21.33334,0,0,0,0-42.66667Z" style="fill:#764126"/><path d="M110.29167,301.01042a32.153,32.153,0,0,1-22.83334-9.60417,31.719,31.719,0,0,1-9.16666-22.61458,32.12813,32.12813,0,0,1,9.60416-22.60417C133.75,201.38542,201.375,170.66667,273.47917,162.34375a321.36432,321.36432,0,0,1,93.875,2.34375,32.116,32.116,0,0,1,25.8125,37.33333c-3.1875,17.07292-20.04167,28.80209-37.125,25.60417a266.86975,266.86975,0,0,0-75.08334-1.70833c-57.60416,6.39583-113.0625,31.14583-148.27083,65.91666A31.27512,31.27512,0,0,1,110.29167,301.01042Z" style="fill:#4d2100"/><path d="M252.28581,65.93783a292.21806,292.21806,0,0,0-35.17709,2.16536C178.35612,72.82064,140.8418,85,108.62044,103.32389a21.33337,21.33337,0,1,0,21.09245,37.08854l.00651-.0039c.04622-.026.095-.05371.14128-.08008l.01888-.01074c.04622-.026.09049-.05143.13672-.07748l.00846-.00455.14648-.08334.01433-.00781c.05013-.02864.0944-.05338.14518-.082l.002-.001c.05013-.02864.09831-.05566.14909-.084l.013-.00749c.097-.05469.19857-.11165.29557-.16634l.01433-.00814c.10156-.057.19661-.11.29883-.167l.00976-.00586.30208-.16829.00847-.00456c.10156-.05664.20117-.1123.30338-.16895l.00782-.00423c.10221-.05664.20247-.112.30468-.16862l.00717-.00423.14908-.082.015-.00814.13867-.0765.01172-.00651c.05078-.028.09765-.05371.14909-.0817l.01106-.00619c.09831-.054.20378-.112.30209-.16569l.01041-.00553c.10222-.05632.19987-.10938.30274-.16537l.013-.00716c.09831-.05371.19922-.10872.29818-.16211l.01823-.01009c.10351-.056.19791-.10742.30143-.16341l.00911-.00488.30274-.16341.015-.00814c.10287-.05566.19922-.10742.30274-.16276l.01171-.00619c.099-.05306.20183-.10839.30144-.16145l.01627-.00879c.05209-.028.099-.05306.151-.08041l.00521-.00293c.04753-.02539.099-.05306.14714-.07845l.01237-.00651c.05143-.02767.09961-.05338.15169-.08073l.00716-.0039c.10352-.055.20638-.10938.3099-.16439l.00846-.00456c.10352-.055.20443-.10807.3086-.16308l.01106-.00586.308-.16211.00911-.00456.30924-.16244.01107-.00553c.10026-.05241.20573-.10775.306-.15983l.015-.00781c.05208-.02735.10026-.05241.15234-.07943l.00391-.00195.14974-.0778.013-.00684c.04817-.02506.10351-.05371.15169-.07845l.01237-.00651c.04818-.02474.0957-.04948.14388-.07454l.01172-.00619c.05273-.027.10026-.05176.153-.07877l.01042-.00554c.05273-.027.097-.0498.14909-.07682l.00716-.00358c.05208-.027.10352-.05339.15625-.08041l.00586-.00325c.10091-.05176.21159-.10872.3125-.16016l.01367-.00716c.10547-.05371.19857-.10156.304-.15527l.02343-.012c.10157-.05143.19662-.10026.29818-.15169l.02409-.01237.29883-.15137.02409-.012c.10156-.05143.20182-.10221.30338-.15332l.015-.00781.1556-.07813.00195-.001c.04883-.02442.0944-.0472.14258-.07162l.02994-.015.14649-.07357.01367-.00684.13607-.068.026-.013c.05273-.02669.0944-.0472.14714-.07357l.01692-.00846.14128-.07031.01562-.00782.1517-.07552.01627-.00814c.05339-.02669.09766-.0485.151-.07487l.00261-.0013.15625-.07747.01432-.00716.3138-.155.00977-.00456c.10221-.05045.21224-.10482.3151-.15527l.013-.00651c.10677-.05241.20378-.09994.3112-.15235l.01823-.00879c.10221-.05045.207-.10123.30925-.15136l.01757-.00847.15235-.07422.01432-.00683c.04492-.02149.09766-.0472.14258-.069l.01953-.00944c.04883-.02409.10547-.05143.15495-.0752l.00521-.0026c.04882-.02376.10677-.05176.15625-.07552l.00651-.00326c.054-.026.10286-.04948.15625-.07552l.01757-.00846.14388-.069.01368-.00684.15364-.07389.01888-.00879c.04948-.02376.09636-.04655.14584-.07l.00976-.00488.14974-.07194.02865-.01335c.10286-.04948.19987-.0957.30338-.14485l.02409-.0114c.10352-.04948.19727-.09407.30143-.14323l.03256-.01562c.099-.0472.20312-.09635.30273-.14323l.02474-.01172c.054-.02571.09831-.04655.15234-.07194l.00521-.0026c.04492-.02116.0944-.0446.14-.06576l.03776-.0179c.04948-.02344.09505-.0446.14453-.068l.02018-.00911c.04492-.02148.08854-.04167.13346-.06315l.0293-.01367c.05013-.02311.10156-.0472.151-.07064l.01367-.00619c.04558-.02115.09245-.04329.13737-.06445l.03-.01367c.04492-.02116.10091-.0472.14583-.068l.028-.013c.04492-.02115.08463-.03938.13021-.06054l.028-.013.14584-.068.03059-.014.13152-.06088.02213-.01009c.04948-.02311.09505-.04427.14518-.06738l.03646-.01693.13021-.05989.02148-.01009.14519-.06674.03841-.01757.1289-.05925.02214-.01009.14258-.06576.03776-.01725c.05013-.02278.09245-.04232.14258-.06543l.02148-.00944c.04557-.02083.08464-.03874.13086-.05957l.04167-.0192.14127-.06446.02865-.013c.041-.01888.082-.03743.123-.056l.03842-.01758.14388-.0651.02929-.01335.12565-.057.03646-.01628.14128-.06413.04036-.0179.11263-.05111.04037-.01823c.04622-.02083.0931-.042.13932-.0625l.04688-.02115c.03645-.01661.06836-.03093.10547-.04721l.04687-.02148c.04622-.02051.08854-.03939.13477-.06022l.05208-.02311c.0319-.01433.069-.03125.10156-.04558l.04623-.02083c.04166-.01855.09179-.041.13346-.05924l.05273-.02344c.03646-.0166.07422-.0332.11068-.04981l.03776-.0166c.04622-.02051.08919-.03939.13477-.05989l.056-.02474.11458-.05078.03906-.01758.12565-.05534.05729-.02539.10873-.04818.06836-.03c.0319-.01432.069-.0306.10156-.04492l.05859-.02571.13412-.05925.03581-.01562c.03711-.01628.07617-.03321.11263-.04948l.04948-.02181.13737-.0599.04622-.02018c.0319-.014.06966-.0306.10221-.0446.01758-.00781.03776-.01693.056-.02441l.13542-.05925.04167-.01823c.0371-.016.07421-.03222.11132-.0485l.04493-.0192.138-.06023.04752-.0205.10612-.04623.04948-.02116c.04167-.01823.0931-.04036.13542-.05859l.05143-.02214.10286-.04459.04818-.02051c.04167-.01823.0918-.03971.13347-.05762l.05794-.02474.09831-.04231.06315-.02735c.04231-.0179.08138-.0345.123-.05273l.05274-.02246c.03255-.01368.07487-.0319.10742-.0459l.06966-.03.10482-.0446.0612-.026.09765-.04166.09245-.03939.08724-.03711.0638-.027c.04167-.0179.0905-.03841.13216-.056l.04883-.02083c.028-.01172.069-.029.097-.041l.0625-.02637.11849-.05013.07356-.03092.08464-.03548.06706-.02832c.04232-.01791.08268-.03483.125-.05241.02278-.01009.043-.01823.0664-.028l.08334-.03515.0625-.02637c.04231-.01758.08528-.03548.1276-.05338l.06836-.02833c.028-.012.05534-.02311.08333-.03483l.06446-.027.12825-.05339.0638-.02669.0892-.03711.06054-.02507.127-.05273.06575-.027.0918-.03841.08333-.03418.10091-.04167.07032-.029.08593-.03548c.03386-.014.06706-.028.10157-.042l.08073-.03321.07682-.03157.08724-.03581.09635-.03971c.02865-.0114.05925-.02409.08724-.03548l.07031-.02865c.03256-.01367.06446-.02637.097-.04l.099-.04.07226-.02962.07683-.03125.10742-.04395.08659-.03515.07552-.03028.07487-.03059c.03776-.0153.08594-.03483.12435-.05013l.07161-.029.06966-.02832.08138-.03287.11719-.0472.08008-.03223c.02344-.00977.04232-.01725.0664-.02669l.11329-.0459.08528-.03418.08008-.0319.06706-.027.11523-.0459.08334-.0332.07812-.03125.06966-.028.1237-.04915.07552-.02995.07747-.03092.06706-.0267.13216-.0524.06836-.027.07617-.03028c.02865-.01106.05665-.02213.08464-.03353l.11328-.04459.07162-.028.08138-.03222.07161-.02832c.04167-.01628.08594-.03386.12826-.05013.02343-.00944.03971-.01595.0638-.02507l.08333-.03288.06315-.02474.138-.054.06315-.02442.08334-.03287.05338-.02084.153-.05924.05273-.02084c.097-.03776.196-.07584.293-.1136l.05664-.02181.14974-.05794.05208-.02019.0931-.03613.04558-.01758.16927-.06478.03776-.01464.09635-.03711.04037-.01563c.06445-.02441.127-.0485.19075-.07292l.01563-.00586.10742-.04134.02018-.00748.18685-.07129.03841-.01465c.03255-.0127.06511-.02474.09831-.03744l.0332-.01269c.06055-.02311.12044-.0459.18164-.069l.03386-.0127c.03255-.01269.06966-.02669.10286-.03906l.01042-.00391.19791-.07487.03972-.015.0983-.03711.01889-.00716c.0664-.02507.1302-.04915.19661-.07389l.0306-.0114c.10482-.03971.21354-.0804.31836-.11979l.03125-.01139c.10482-.03939.21094-.07878.3164-.11817l.03516-.013c.10677-.04.21484-.07975.32162-.11979l.01757-.00651c.11133-.041.222-.082.33334-.123l.01367-.00488.20963-.07747.01758-.00651.10873-.03972.01367-.0052c.11263-.04135.22461-.08236.33789-.1237l.0039-.00163.22331-.08138.01042-.00358c.11328-.04134.22721-.083.34114-.124l.00782-.00326c.11393-.041.22526-.08138.33854-.1224l.01627-.00585c.11329-.041.22331-.08041.33659-.1211l.013-.00456c.11329-.041.22787-.082.34115-.12239l.00651-.00228a257.67625,257.67625,0,0,1,46.7819-11.88151l.01432-.00228c.12175-.01888.2487-.03874.37045-.05762l.02474-.0039c.12239-.01888.24088-.03711.36263-.056l.0306-.00456c.12044-.01855.24479-.03743.36458-.05566l.02279-.00358c.12174-.01856.24218-.03679.36393-.055l.03385-.00521c.07878-.01171.155-.02311.23373-.03515l.00586-.00065.12369-.01856.01888-.00293.235-.03483.015-.00228.12435-.01823.00912-.0013c.07617-.01139.151-.02213.22786-.03353l.03841-.00553c.03711-.00553.07617-.01139.11394-.0166l.01953-.00293c.07291-.01074.14713-.02149.2194-.0319l.03906-.00586.11458-.01628.01042-.00163.22917-.03287.04036-.00586c.11654-.0166.22787-.03255.34375-.04916l.05729-.00813c.11263-.016.224-.03158.33659-.04721l.06055-.00846c.054-.00781.10677-.0153.16081-.02278l.07356-.0101.0944-.013.07487-.01041.13737-.01921c.03256-.00423.05534-.00749.08789-.012l.09766-.01335.069-.00944.15169-.02083.07943-.01075.0931-.01269.07878-.01074c.04948-.00651.0957-.0127.14518-.01953l.07943-.01075.09049-.012.097-.013.12109-.01628.09245-.01237.08268-.01074.138-.01855.07813-.0101.10091-.01334.07877-.01042c.04883-.00618.10157-.013.15039-.01953l.06055-.00781c.03841-.00521.08073-.01042.11849-.01563l.0638-.00814c.05469-.00716.10222-.01334.1569-.02018l.06185-.00814.11459-.01464.0638-.00814c.05468-.00716.10482-.01335.15885-.02018l.05664-.00749.12956-.01628.05013-.00651.16732-.02083.04687-.00586.14714-.01856.03385-.00423.17123-.02148.04687-.00554c.04948-.00618.10612-.01334.15495-.0192l.02539-.00326.17383-.02148.04492-.00521c.0599-.00749.11719-.01465.17773-.02181h0a248.62508,248.62508,0,0,1,30.02084-1.85254h0c.03711,0,.08008,0,.11718.00033h.27865l.06836.00032h.05339l.05989.00033h.056l.06055.00032h.05534l.06705.00033h.04427l.07357.00033.04623.00032.07747.00033h.03581l.09114.00065.05469.00032.08789.00033.0332.00032.07943.00033.04818.00032.07161.00033.043.00033.07031.00065.04753.00032.07161.00033.04688.00065.06445.00032.05274.00066.0638.00032.05273.00065.06185.00033.05339.00065.07422.00065.04036.00033.0957.001.05274.00065.082.001.03255.00033.08529.001.03711.00033.07682.001.04427.00033.069.001.05339.00065.06445.00065.04427.00065.07422.001.04557.00065.071.001.04231.00065.07553.001.04231.00065c.07748.001.1517.00228.22917.00326l.02083.00065.097.0013.03515.00065.07553.0013.05078.00065.06836.00131.04622.00065.06706.0013.04622.00065.07617.00163.03711.00065.07813.0013.03906.00065.08138.00163.03385.00065.08594.00163.02995.00065.0931.002.02409.00033.11653.00228.002.00032.11328.00228.02734.00065c.02735.00033.0625.0013.08919.002l.0306.00065.08594.00162.0319.001.08268.00163.03842.001.07877.002.03581.00065.07812.002.041.001c.02734.00065.04948.001.07682.00195l.03646.00065.07227.002.04882.001.08008.00228.0306.00065.11393.00293.03125.00065.08724.00228.03516.001.07357.00195.05273.00163.06641.00163.04362.0013.06966.00195.04753.0013.06836.002.04947.0013.05925.002.056.00163.0651.00163.04623.00162.08789.00261.02278.00065c.07683.00228.1556.00456.23243.00716l.0319.001.08268.0026.03711.001.07812.0026.04493.0013.0664.00228.054.002.05534.00162.0638.00228.05078.00163.05859.00195.05469.002.06315.002.04492.00163.06706.00228.04232.00162.07292.00261.0332.001.07617.00293.02083.00066c.04948.00162.09571.00358.14584.0052l.05794.00228.05469.002.05534.002.05468.00228.06576.00228.04622.00195.06446.00228.05078.002.0664.0026.04688.002.0664.0026.04753.002.07357.00292.03971.00131.07292.00325.04232.00163.07747.00326.03776.0013.11.00455.04166.002.07162.00293.04687.00195.06641.00293.04883.00195.06836.00293.03971.00163.07422.00326.04427.00195.06966.00325.04427.002.06706.00293.05013.00228.06771.00293.04166.00195.07487.00325.04167.002.08984.00423.02214.001.11263.00521.03125.00163.084.00391.04752.00228.05729.0026.06511.00326.05078.0026.056.0026.05794.00293.05339.00261.06119.00293.05664.00293.04493.002.06966.00358.04362.00228.067.00325.043.00228.06836.00358.03581.00163.17708.00944h.00391l.05924.00326.0586.00293.04036.00227.07292.00391.04818.00228.06445.00358.04687.0026.06446.00359.05273.0026.06315.00358.04493.0026.06966.00359.04622.0026.07162.00423.03841.00195.082.00456.0319.002c.07552.00424.15169.00847.22721.013l.02084.001.09179.00554.03646.002.07292.00423.04883.00293.0664.00391.04492.0026.06511.00391.04883.00293.06966.00423.04036.00228.07031.00423.04428.00293.07031.00423.04362.0026.07552.00456.03515.00228c.071.00423.153.00944.224.014l.03907.00228.07617.00488.03515.00228.07422.00488.05013.00293.06055.00391.05143.00325.0599.00391.05729.0039.05273.00326.056.00391.05469.00358.0599.0039.05078.00326.05859.0039.04362.00293c.07552.00521.15039.0101.22591.0153l.0625.00424.03646.0026.07813.00521.041.00293.06446.00456.05989.0039.05143.00358.0599.00423.04948.00358.06055.00424.05468.0039.056.00391.04818.00358.06641.00456.04166.00293.06706.00488.05013.00358.05924.00423.10873.00814.03255.00228.07617.00553.058.00423.05338.00391.054.00423.05859.00423.056.00424.05208.0039.06185.00456.04688.00358.0625.00488.05143.00391.056.00423.05859.00456.05339.0039.05664.00456.05469.00423.05013.00391.0638.00488.10482.00814.03776.00293.07031.00553.06641.00521.04166.00326.06771.00553.043.00358.06315.00488.04883.00391.06315.00521.04492.00358.0625.00488.05339.00456.05534.00456.05468.00423.05534.00456.0599.00521.05078.00423.0638.00521.04622.0039.10873.00912.0319.0026.07747.00651.04883.00391.0625.00553.05078.00423.0573.00489.05794.00488.05273.00456.054.00455.05664.00521.05664.00456.05273.00488.05664.00488.05469.00456.05469.00488.06315.00554.04557.0039.0573.00521c.07226.00651.14388.0127.21549.01921l.05469.00488.05013.00456.06185.00553.05143.00456.056.00521.05534.00488.05859.00553.04688.00424.067.00618.04167.00391.06836.00618.04622.00423.05534.00521.0586.00554.04492.00423.06445.00586.056.00521.05078.00488.10612.01009.054.00521.05534.00521.056.0052.05468.00521.04948.00489.0625.00586.05143.0052.054.00489.05794.00586.05079.00488.06054.00586.04753.00456.05859.00585.05664.00554.05274.00521.05989.00586.04883.00488.06315.00618.06706.00684.08789.00879.03385.00325.07292.00749.056.00553.05143.00521.06315.00651.043.00424.06446.00651.04882.0052.05534.00554.05534.00586.05339.00553.056.00554.054.00553.056.00586.05143.00553.06315.00651.04688.00489.06055.00651.09765.01009.05534.00586.056.00586.05339.00585.05338.00554.05664.00618.05013.00521.05925.00651.05078.00521.05989.00651.04623.00488.06445.00717.04818.0052.05859.00651.04948.00521.06315.00684.04558.00521.07291.00781.03516.00391.0664.00748c.02865.00293.0599.00651.0879.00977l.0625.00683.04231.00456.06576.00749.04492.00488.06771.00781.043.00456.06054.00716.05469.00586.05469.00619.05338.00618.05469.00619.05339.00618.05729.00651.05143.00586.05339.00619.056.00651.06185.00716.04362.00488c.069.00814.14713.01725.21614.02507l.04167.00488.0651.00781.054.00619.05273.00618.05469.00651.054.00651.05664.00651.05013.00619.05794.00683.04622.00554.06446.00781.04622.00553.05534.00651.05924.00717.05014.00618.05989.00716.04753.00554.06771.00846.07487.00911.07161.00879.04167.00489.06445.00813.05013.00619.05924.00716.04688.00586.0612.00749.04622.00586.06641.00813.041.00521.0625.00781.04948.00619.05925.00716.04817.00619.056.00716.05339.00683.05664.00684.05078.00651.04167.00553c.04492.00554.0931.01172.13737.01758l.02929.00358.06771.00879.03841.00488.07032.00912.03515.00423.07162.00944.0332.00423.07227.00944.0345.00456.06576.00846.04427.00586.0651.00847.03841.00488.06576.00879.04232.00553.06445.00847.04492.00585.06055.00814.01823.00228.17773.02376.00977.00131.06966.00944.03841.00488.0612.00846.04622.00619.06641.00879.03385.00455.07227.00977.0345.00488.07162.00977.0319.00423.07161.00977.03516.00488.07292.01009.01888.00228c.12565.01725.252.03483.3776.05241l.01563.00195.067.00944.04037.00586.0625.00846.04492.00651.05469.00749.05338.00749.0586.00846.04362.00619.06119.00846.04427.00651.06446.00911.03971.00554.0625.00879.04427.00651.06446.00911.02864.00423.07422.01075.00846.0013c.05339.00749.10547.015.15886.02278l.04036.00586.07227.01042.028.00423.07357.01074.0332.00456.07227.01074.02995.00424.07226.01074.03581.00521.06836.01009.03516.00521.06835.01009.04037.00586.0638.00944.04037.00618.06445.00944.03385.00521c.08724.013.17513.026.26237.03939l.01042.00163.07812.01171.0267.00391.07617.01139.02865.00456.07161.01074.03255.00489.07227.01106.03255.00521.06771.01009.03776.00586.07031.01075.0293.00455.07226.01107.03256.00521.07421.01139.00066.00033c.097.015.1927.02962.28906.04492l.013.00195.06836.01074.03971.00619.054.00846.05534.00879.05208.00814.04753.00749.06119.00976.043.00684.06315.01009.03776.00586.06576.01042.03906.00618.06836.01107.01888.00293c.09375.015.18359.02962.27735.04459l.00781.00131.07291.01172.0293.00488.07357.012.0293.00456.07356.012.0306.00521.06511.01042.04231.00683.06446.01075.03646.00586.0677.01106.03256.00554.07291.012.03125.00521.06771.01107.043.00716.06315.01074.013.00195.25847.0433.03385.00553.06706.0114.03385.00586.06771.01139.03711.00618.06771.0114.0332.00553.06706.01139.04036.00717.06315.01074.03841.00651.06381.01074.03906.00684.06771.01172.01823.00292c.11849.02051.23828.041.35612.06153l.02994.00521.06511.01139.03776.00651.07031.01237.03125.00553.06641.0114.03776.00683.06771.01172.0345.00619.06445.01139.041.00716.0651.01139.03321.00619.06771.012.03059.00521q.17384.03077.34636.06185l.028.00521.07292.013.02734.00488.06836.01237.03907.00716.06445.0114.03385.00618.069.0127.03581.00651.06445.01172.03907.00716.06119.01107.04428.00813.06184.0114.02149.0039c.09049.0166.17969.03321.27018.04981l.00716.0013.08529.016.015.0026.07552.014.028.00521.069.013.03581.00684.05794.01074.04818.00879.05859.01107.04036.00748.0612.01172.03906.00749.06576.01237.03711.00683.06055.01172.04882.00912.056.01074.03972.00716c.03776.00749.07747.015.11523.02214l.04362.00846.05078.00977.05664.01074.04558.00879.05338.01009.05339.01042.05078.00976.056.01074.03971.00782.06315.012.043.00846.05925.0114.03841.00748.06315.01237.041.00782.06185.012.03125.00619.069.01367.03581.00683.11654.02311.04687.00912.0586.01172.04362.00846.05664.01107.04427.00879.0638.01269.03646.00717.05924.012.04558.00879.05729.01172.04557.00911.05273.01042.04688.00944.06185.01237.028.00586.071.014.026.0052c.11328.02312.22982.04655.3431.06967l.02995.00618.06315.0127.03711.00748.05989.01237.04492.00912.06055.01269.0332.00651.069.01433.03321.00683.0664.01367.03256.00684.06835.014.026.00553c.10872.02246.21875.04525.32747.068l.04427.00912.06055.01269.03841.00814.06641.014.03125.00651.071.015.03.00619.06575.014.03516.00748.07031.015.02279.00488.07617.016.02018.00423.17643.03776.01823.00391c.11719.02506.23112.04948.34766.07454l.0293.00619.06966.0153.026.00553.07161.01563.03.00651.06966.015.028.00619.06836.015.03841.00814.0599.01334.0358.00782.06706.01464.02474.00521.07487.0166.00846.002.25586.05631.02735.00619c.026.00586.04947.01107.07617.0166l.02018.00456.071.01595.0306.00683.06576.01465.03646.00814.05924.013.041.00944.05989.01335.03906.00879.06055.01367.03581.00781.06706.0153.02083.00456.07682.01758.01758.00358c.03451.00813.071.01627.10612.02408l.07292.01661.04752.01074.04623.01074c.02213.00488.04427.00977.06575.015l.03516.00782.06575.015.0306.00716.0638.01465.03907.00912.06185.014.0332.00782.06836.01562.026.00586.07422.01725.02018.00456.07422.01725.0319.00749.33594.07812.02083.00489.07031.0166.028.00651.06966.01628.028.00651c.02148.0052.04752.01139.06966.01627l.0306.00749.05924.014.04557.01074.05534.013.03841.00911.06381.015.02539.00618.07682.01823h0c.12565.02995.24935.05957.375.08985l.00325.00065.07227.01725.0306.00749.06966.0166.02409.00586.07161.01725.02735.00684c.02148.0052.04817.01139.06966.01692l.02669.00651.07031.01693.0293.00716.06641.01628.0319.00748.06706.01661.02343.00553c.08464.02083.16927.04134.25326.06217l.00976.00228.0625.01563.03711.00911.06511.01595.02995.00749.06835.01693.028.00683.071.01758.026.00651.069.01725.02864.00684.06966.01758.02474.00618.07031.01758.02539.00619c.17839.04492.35612.08951.53451.13476l.01367.00326.07031.01823.0306.00748.0612.01563.03841.00976.06185.01563.0306.00814.069.01757.02344.00586.07357.01888.01953.00489c.02539.00683.05013.013.07552.01953l.01758.00456c.11328.029.22916.05892.34244.08821l.01888.00521.07422.01921.02084.00553.07552.01953.01953.00521.07357.01888.02474.00651.067.01758.0319.00846.06576.01725.02865.00749.067.01758.02735.00716.06966.01823.02344.00619.071.01888.01172.00325c.05143.01335.10677.028.15755.04167l.01888.00488.06966.01855.02539.00684.06446.01693.03385.00911.0651.01758.02735.00716.06771.01823.03059.00814.06576.01758.02734.00716.06836.01855.02865.00749.06771.01855.02018.00521.07682.02084h0c.123.0332.24219.06543.36524.099l.00521.00162.08072.02181.01563.00423.07292.02019.02278.00618.07552.02051.01693.00456.07617.02116.01823.00488.07682.02116.01563.00423.07878.02181.01041.00293c.17969.04948.35808.09928.53711.14909l.00912.0026.07812.02181.01823.00521.07031.01986.02865.00781.06706.01888.02408.00683.071.02019.02344.00651.06966.01953.02669.00749.06836.01953.01172.00325.33919.09636.02148.00618.06836.01986.02605.00716c.02278.00684.04427.01269.067.01921l.0267.00781.0677.01953.02865.00814.06185.0179.0345.01009.06316.01791.02669.00781.06771.01953.01823.00521c.14453.042.29036.08431.43424.12663l.00846.00227.07032.02084.02864.00814.06836.02018.02083.00618.07292.02116.02083.00619.07618.02246.00911.00293.08529.02506h.00065c.17708.05241.35612.1058.53255.15853l.01367.00391.07748.02343.01432.00424.07227.02181.02343.00683.07032.02116.02278.00684c.02084.00618.04688.014.06706.0205l.02734.00814.06771.02051.02409.00716.06641.01986.02864.00879c.16992.05143.3418.10384.51107.15592l.01042.00326c.02669.00814.05273.016.07942.02441l.01172.00358.07487.02311.02279.00684.07031.02181.01758.00521c.02474.00781.05208.016.07617.02376l.00912.00293c.17317.05339.35091.10872.52343.16244l.01107.00358.07878.02474.01172.00358.07877.02474.01172.00358c.02669.00846.056.0179.08268.026l.00391.00163.08333.026.01107.00358c.23372.07357.46419.14713.69727.22168l.015.00488.07682.02442.01107.0039.07617.02442.01888.00586.07227.02343.01758.00554.07226.02343.02279.00717.069.02246.01172.0039c.14257.0459.2858.09278.42773.13933l.00781.00227.07813.02572.01367.00456.07162.02343.02148.00684.07161.02376.01693.00554.07162.02344.02148.00716.06966.02311.01888.00618.07227.02377.01041.00358c.10938.03613.21615.07161.32487.10774l.02409.00814.07031.02344.01693.00553.07162.02409.02018.00684.06836.02279.02278.00781.06706.02246.02344.00781.07031.02344.013.00456.07813.02636.00586.002c.14323.04817.29036.0983.43294.14681l.0013.00032.07292.02507.02083.00683.06771.02344.02214.00749.06575.02246.02539.00879.06511.02213.028.00977c.01823.00618.03971.01334.05729.01985l.03711.0127.05729.01953.02995.01042.05925.02051.02474.00846c.10221.03516.20572.071.30729.10644l.02669.00912.0638.02246.02409.00814.0612.02148.03255.0114.06055.02115.02539.00879.06445.02279.026.00911.06706.02344.01367.00489c.02409.00813.05209.01822.07617.02669l.00912.00325.07877.02767.00521.002c.07943.028.16016.05664.24024.08463l.01692.00619.069.02441.02019.00716.0664.02376.02279.00814.06771.02409.02148.00749.0638.02278.026.00944.0677.02409.01823.00651.06836.02442.02149.00781.071.02539.00521.00195.08138.0293.00391.0013q.167.06006.33333.12045l.01107.0039c.02539.00944.05273.01953.07877.02865l.00651.0026.07422.02669.01823.00684.06771.02474.02083.00749.06511.02376.02669.00977.06576.02408.013.00456c.16731.06152.334.12272.5013.18457l.00651.00228.06706.02507.02539.00944.0651.02408.02083.00782.06771.02506.01823.00684.07292.02734.00976.00358.07422.02767.01758.00651c.16471.06153.32682.1224.49154.18457l.01106.00423c.02735.0101.05079.01921.07813.02963l.00586.00195.07422.02832.01692.00618.07292.02767.00912.00358.07617.029.01172.00423c.222.08463.4414.16862.66276.25423l.013.00488.07357.02865.01237.00456.069.02669.02018.00781.07291.02832.00456.002.07878.0306.00911.00358c.16081.0625.32292.12565.48308.18848l.02213.00879.069.027.01367.00553.071.028.01692.00651.069.02734.01628.00651.06706.02637.02474.00976.06315.02507.01562.00618c.16146.06413.32357.12891.485.19336l.00911.00358.06511.02637.02539.01009.06185.02507.02278.00879.06381.02571.02018.00814.069.028.01172.00455.07031.02865.01888.00749c.10547.04264.21419.08658.319.12955l.0013.00033.07943.03255.00391.00163.06575.02669.02409.00977.0599.02474.02539.01041.05664.02311.03255.01335.05794.02376.02214.00912.0625.02571.02409.0101.06445.02636.01107.00456c.1289.05339.26041.10775.39.16146l.01953.00814.06576.02734.01823.00781.0625.02572.02474.01042.06054.02539.02539.01041.058.02442.02669.01139.06185.02572.02083.00879.0599.02506.0319.01367.05664.02377.01823.00781.06445.027.01888.00781c.041.01758.08333.03515.125.05273l.02474.01042.0638.027.01823.00781.06185.02637.02474.01041.06445.02767.01693.00684.0638.02734.02474.01075.0586.02473.02734.01172.05469.02312.0345.015.05339.02279.02278.00976.06185.02669.02019.00879c.06575.028.13411.05762.19987.08594l.02994.0127.05209.02278.03385.01433.05013.02181.03581.01562.04492.01921.04232.01855.04622.02018.03711.01595.04883.02116.03385.015.05339.02311.0293.01269.05468.02377.0267.01172c.10091.04394.19921.08724.29948.13118l.00585.00293c.02474.01042.04623.02018.07032.03092l.01237.00521.06185.02735.02539.01106.05989.0267.02149.00911.06054.027.02474.01107.05925.026.02409.01074.05859.026.02669.01172c.02019.00912.03646.0166.05729.02539l.02344.01074.0599.0267.02083.00911q.10841.04834.2168.097l.00716.00325c.01888.00814.03971.01758.05794.026l.028.01237.05794.026.02409.01106.05794.026.02539.01139.0586.02637.02474.01106.05729.02572.02539.01172.06185.028.01237.00554.069.03125.01172.00553c.10351.04655.20377.09245.30664.13932l.00586.00261.06575.03027.01758.00781.054.02474.03386.01563.05469.02506.02213.01009.0625.02865.02018.00911.06055.028.02214.01042.05989.02734.02214.01042.0638.02929.00065.00033c.13151.06087.26237.12142.39388.18262l.00521.0026.07031.03288.01237.00586.0625.029.02279.01042.06055.02864.01953.00912.06119.02864.02084.00977.06185.029.01888.00911.06119.02865.02019.00976c.097.04525.19075.08985.28711.13542l.01562.00716.0599.02832.02148.01042.05925.028.02278.01107.0586.02767.02278.01074.05534.02637.0306.015.05143.02442.028.01335.05469.026.02343.01139q.18165.08691.362.17415l.01693.00814.05534.02669.02734.013.054.02636.02734.013.05469.0267.02539.012.05729.028.02279.01106.05664.02767.02409.01172.05924.02865.01563.00781.06445.03125.01432.00684c.09636.04752.19532.0957.29232.14322l.00977.00489.06315.03125.01692.00846.0599.0293.02214.01074.06054.02995.01628.00814.0638.03157.01693.00846.06054.02995.02279.0114.05534.02767.028.01367.05534.02734.00977.00488c.09635.04786.18815.09375.28385.14193l.02214.01074.05794.029.02018.01042.0599.02995.02083.01042.05339.02669.02995.0153.05208.02636.02539.0127.05469.02734.02539.013.05468.02767.0267.01335.05208.02637.02865.01465.25521.12955.0358.01823.04037.02051.03841.01986.04557.02311.03516.0179.04492.02311.0345.01758.04623.02377.03581.01855.04427.02279.03255.0166.04883.02506.02929.0153.05079.026.02148.01107c.07031.03646.13867.07162.209.10808l.002.001.05924.03093.02149.01074.04882.02571.03256.01693.04752.02474.0319.0166.04753.02442.0306.01627.05013.026.02995.01563.04752.02474.03125.0166.05144.027.01953.01009.05859.03092.01237.00619c.09245.0485.18359.09668.276.14551l.02149.01139.05273.028.026.014.04818.02539.03385.01791.04753.02506.02734.01465.05144.02734.03059.01628.04623.02474.03385.01823.04427.02311.03646.01986.04362.02311.0293.01563.04883.02636.07877.042.00781.00424.07227.03873.02409.013.05273.02832.03776.02051.03842.02051.04557.02474.03385.01823.041.02213.03906.02084.04167.02278.03646.01986.04036.02181.03841.02083.043.02344.03516.01921.041.02213.03776.02084c.0586.03157.1211.06575.179.09765l.013.00716.04883.02637.0332.01856.04167.02278.0358.01953.04167.02279.03841.02116.041.02246.0345.01921.04232.02311.041.02278.03646.02019.0371.0205.04362.02409.028.01563.05143.02832.00456.00228c.06445.03613.13346.07421.19792.11l.02408.01335.04493.02539.03385.01888.03971.02213.03842.02149.04166.02311.03581.02018.04036.02279.03842.02116.03971.02246.04036.02246.03516.01986.04167.02343.03906.02214.03776.02116.03776.02116.05924.03353.01823.01009.07878.04492.01367.00749.0599.03418.0358.02018.04493.02539.0319.01823.043.02474.03711.02083.04036.02311.03971.02279.03321.01888.04557.026.0319.01823.04362.02474.03581.02083.03906.02214.04622.02637.03125.0179.03972.02279.08919.05175.02149.012.03971.02278.03776.02214.03906.02214.03841.02246.03711.02148.03841.02246.03972.02279.03971.02311.03255.01856.04623.027.03255.01888.04492.02637.0306.0179.04492.026.03386.01985c.01823.01075.03515.02019.05273.03093l.02148.01237.0573.03353.04882.02832.04688.02767.03646.02148.03841.02246.03711.02181.04232.02474.0319.01921.043.02474.03515.02115.04232.02507.03255.01921.04558.02669.02929.01758.05274.03092.02343.014.05209.03092.02539.015.06445.03841.01042.00618.15495.09245.015.00912c.02148.01236.03906.02311.0599.03548l.02734.0166.04948.0293.02669.01627.04818.029.0319.01888.04492.027.0293.01758.04622.028.03125.01888.04818.029.02474.015.04883.02962.03125.01856.05013.03027.02278.014.07552.0459.013.00781.06316.03841.02474.015.04817.0293.03386.02051.04427.027.02734.01692.04753.029.02864.01757.04818.0293.02995.01823.041.02506.03581.02181.04167.026.0319.01953.04427.027.0306.01888.04818.02962.02734.01693.0599.0371.0371.02279.05144.0319.02343.01433.05144.0319.02929.01823.04427.02766.03256.02019.04036.02474.03776.02343.03841.02409.03125.01953.04623.02865.02929.01855.04753.02963.02539.01595.04948.0306.02734.01725c.07618.04785.14779.09277.224.141l.01367.00846.058.03646.02734.01725.05013.03158.02148.01367.05144.03255.02539.01628.05078.0319.02344.015.04948.03158.02539.016.056.03548.01692.01074.054.03451.02279.01465.06119.03906.01172.00749c.02344.015.05143.03255.07422.04752l.01628.01042.05794.03678.01953.01237.05729.03711.01367.00847.0625.04036.01172.00749.0599.03874.02083.01334c.01693.01107.03711.02376.054.03516l.01888.012.056.03581.01888.01237c.02018.01335.041.02637.0612.03939l.01106.00748.0612.03972.01563.00976c.09765.06381.19726.12858.29492.19239l.01823.012.05924.03841.01172.00781.0599.03939.01823.01172.056.03679.01888.01236.05208.03418.02279.0153.06054.03972.00912.00618c.10026.06576.19792.13054.29752.19662l.00977.00683.0638.04232.01237.00814.06185.041.013.00879.05729.03809.02149.01432.05469.03679.01432.00976c.02018.013.03906.026.05924.03939l.01628.01074.05664.03809.01628.01107.05794.03906.01562.01009c.07357.04948.14649.09863.22006.14844l.00781.00553c.02278.0153.041.02734.06315.04264l.015.01009.06055.041.01042.00716.06119.04134.015.01009c.01953.01368.03841.026.05794.03939l.01563.01074.05729.03874.015.01042.06185.04232.01042.00683c.095.06543.196.13412.291.19987l.01237.00814.05925.041.01562.01106.05664.03874.01628.01172c.02018.01335.0345.02344.054.03678l.02148.0153.05078.03483.01953.01367.05339.03711.01823.0127.06054.042.00912.00619.06185.043.01172.00846.14388.10026.00651.00423.0664.04655.00847.00619.05989.042.02018.014.05209.03679.01888.013.05273.03711.01758.01269.05469.03809.01823.013.04883.03418.02343.01693.05209.03646.01692.01237c.11914.084.24089.17057.35873.25488l.00455.00358.06316.04492.015.01074.054.03841.01953.01433.05534.03939.01171.00846.0625.04492.00847.00586c.14193.10254.2845.2054.42578.30827l.01107.00781.06185.04492.00716.00554.0638.04622.00716.00521.06706.04915.002.00131c.14388.10514.28451.20833.42774.31412l.00325.00261.06576.04883.00846.00585.06185.04623.00781.00586.0612.04525.01172.00878.05859.04362.01042.00749.0612.04557.00911.00651c.13932.10417.27995.20931.41862.31413l.00781.00554c.02149.016.04037.03059.06185.04687l.00847.00651.06054.04557.00912.00717.06185.04622.00781.00618.05859.04428.01172.00911c.02409.01823.043.03223.06641.05046l.00065.00032c.0931.07064.1875.14258.27995.21354l.0013.001c.02344.01823.04362.03353.06771.05176l.0039.00325.06315.04818.00847.00684.05924.04524.01172.00879.06315.04916.0013.00065c.11589.08951.23112.17838.34636.26823l.0039.00293.06381.05013.00911.00683.056.04395.00651.00488a21.33329,21.33329,0,0,0,26.25521-33.63184C347.51823,79.57259,302.4349,65.93783,252.28581,65.93783Z" style="fill:#3d180b"/><ellipse cx="277.33333" cy="341.33333" rx="215.98397" ry="145.44921" transform="translate(-65.85498 66.29878) rotate(-12.19711)" style="fill:#5b2c06"/><ellipse cx="277.33333" cy="384" rx="194.48166" ry="102.04525" transform="translate(-66.94998 58.67127) rotate(-10.78377)" style="fill:#764126"/><path d="M434.7513,337.7819a32.01346,32.01346,0,0,0-29.66666,19.987,27.2968,27.2968,0,0,1-3.14063,5.40137c-.04622.0651-.09245.12955-.138.19466-.04948.06673-.099.13379-.14779.20085-17.56315,24.02408-70.20377,52.65332-136.834,60.88867a285.93331,285.93331,0,0,1-34.91016,2.21224c-25.82226,0-49.31771-3.94336-66.15885-11.10319a32,32,0,1,0-25.04037,58.89811,181.86211,181.86211,0,0,0,28.54362,9.2845c.00391.001-.002-.00032.00261.00065q.252.061.50455.1211l.00782.00163c.16536.03938.334.07942.49935.11849l.01627.00358.15821.03743.015.00326.16016.03776.0013.00032.16146.03744.01757.00423.15625.03646.01888.00423c.10678.02474.2129.04948.32032.07422l.01823.00423c.05208.012.10872.02474.16015.03678l.00847.002c.10937.02506.2207.05045.32942.07519l.01628.00391c.054.012.10807.02441.16146.03678l.00911.002c.10938.02473.2181.04947.32813.07421l.01823.00424.1608.03613.00977.00228c.056.01237.11068.02441.166.03711h.00066c.054.012.11.02474.16406.03645l.01562.00359c.054.012.10547.02376.15951.03548l.01627.00358c.10808.02409.21745.04818.32553.07194l.01888.00423c.05208.01172.10677.02344.15885.03516l.01562.00325.1543.03386.01237.0026.1569.03418.02409.00553.1556.03353.02148.00488c.05013.01075.10482.02279.1556.03353l.00521.00131c.05078.01074.10222.02213.153.03287l.03385.00749.14909.0319.028.00586c.05079.01107.099.02116.14974.03223l.00912.002c.05273.01107.10416.02214.15625.0332l.02864.00619.14909.03157.03516.00749.14388.0306.00976.002.151.0319.03841.00782.14648.03092.03125.00651.13412.028.03645.00748c.04362.00944.08985.01888.13347.028l.04687.00976.138.02865.04493.00944c.04231.00846.084.01725.12565.02572l.0332.00683c.04557.00944.08919.01856.13477.02767l.04882.01009.13737.02832.04753.00977.11719.02376.05143.01074.1263.02539.04818.00977.13542.02767.05143.01042.12044.02408.03971.00814.12826.02572.05534.01107.13086.02636.056.01107.10481.02083.07292.01465.11068.02181.05143.01009.13932.02767.04558.00912.12239.02376.04688.00944c.041.00781.08333.01628.12435.02441l.05273.0101.13607.02669.04883.00944c.04036.00781.08073.01562.12109.02376l.05078.00977.1224.02376.05468.01042.13021.02506.06185.012.10677.0205.05925.01107.11979.02311.05208.01009.138.026.04818.00911c.04037.00781.07943.0153.12044.02279l.05729.01107.11654.02213.056.01042.13281.02506.0586.01074c.03515.00684.06836.013.10351.01954l.07813.01464.09961.01856.06575.012c.041.00782.08334.01563.12435.02312l.07031.013.08659.01627c.03125.00554.06576.012.097.01791.03.0052.0612.01106.09114.0166l.06836.01269.12175.02214.07357.01334.08919.01661.09179.0166.08855.016.07422.01334c.041.00749.07877.01465.12044.02181l.07291.01335.08008.01432.11654.02116.071.0127.08008.01432c.03906.00684.08008.01432.11979.02116l.071.01269.08528.0153.10612.01888.07878.01368.07552.01367.11914.02083.07747.01367.08464.01465.0944.0166.097.01693.067.01172.1237.02148.07162.01237.09244.01628c.0319.00521.0625.01042.09375.01595l.08724.015.07357.0127.1224.02116.07226.012.08724.015.10547.01823c.02669.00423.05664.00944.08333.014l.07227.01237c.04167.00684.082.01367.1237.02084l.07291.01237.084.014.11.01856.07748.013.07617.01269c.03971.00684.082.01368.12174.02019l.07683.013.08008.01334.10872.01791.08659.01432.07161.01172.12175.02018.07487.012c.03.0052.06575.01106.0957.016l.08854.01432.09245.015.07161.01172.127.02083.06771.01075.08919.01432.11068.0179.08007.013.07227.0114.12956.02083.0638.01009c.03255.00521.07031.0114.10286.01628l.09506.0153.08138.01269.07877.0127c.03972.00618.082.01269.12175.0192l.07552.01172.082.013.112.01726c.02864.00455.05469.00879.08333.013.02735.00455.04818.00748.07552.01172.03972.00651.07748.01237.11784.01855l.08464.013.07552.01172c.04166.00651.07552.01172.11718.0179l.07422.0114.08138.01269.12175.01856.07357.01139.08658.013c.04167.00651.07227.01107.11394.01725l.07812.012.07682.01172.12045.0179.08333.0127.07357.01106.12305.01823.07161.01074.08138.012.12109.01823.07813.01139.084.01237c.03711.00553.07552.01139.11263.0166l.08138.01205.07618.01106c.04036.00619.08138.012.12174.01791l.07943.01172.09179.01334.09961.01433.08529.01237.07552.01106.12435.01791.07813.01107.07747.01106c.04167.00619.08529.01237.127.01823l.06966.01009.09245.013.11068.01563.08333.01172c.02474.00358.04688.00683.07227.01009.04166.00618.08463.012.1263.0179l.071.01009.0944.013c.03451.00489.07292.01042.10743.015l.08593.012.07357.01009c.04167.00586.08008.0114.12175.01693l.08007.01107.07813.01107.11979.01627.08659.01172.06966.00977.13086.01757.06771.00945.11.01464.09375.0127.084.01139.07552.01009.13151.01758.06641.00912.095.01269c.03711.00488.07292.00944.11.01465l.084.01107.07422.00976.1289.01693.069.00911.08659.0114.11849.0153.08464.01107.07161.00944.13151.01692.07032.00912.11523.015.08724.01107.08789.01139.084.01074.11133.014.08008.01042.0918.01139.11.014.08464.01074.07617.00944c.04232.00521.08659.01074.12891.01628l.07226.00879.07943.01009c.04362.00521.08594.01041.12891.016l.07552.00944c.03125.00358.06445.00781.0957.01172l.10482.01269c.02929.00391.05534.00684.08463.01042l.07552.00944.12826.01562.07617.00912c.0332.00423.06576.00814.09961.012.0332.00423.06706.00814.09961.012l.08854.01074c.028.00358.0612.00749.08985.01074l.10937.01335.08464.00976c.02734.00358.05859.00716.08593.01042l.11459.01367.08138.00944.07617.00912.13216.01562.06771.00781.11328.01335c.028.00326.0638.00716.0918.01074l.09244.01042.06967.00814.13346.01562.07422.00847.10156.01171.10026.0114.08724.00976.07422.00847c.04362.00521.08724.01009.13086.015l.07552.00846.0957.01075.10938.01237.08528.00944.07487.00846.127.014.08268.00911c.0332.00391.06706.00749.10026.01107l.099.01107.08789.00944.07422.00814.13021.01432.07682.00814.097.01074c.03776.0039.06967.00749.10808.01172.02994.00293.05794.00618.08789.00944l.07291.00748.13412.01465c.02409.00228.04687.00489.07031.00749l.12044.0127.08008.00846.10026.01042.06576.00716c.04622.00455.09245.00944.13867.01432l.0651.00684c.04558.00488.0931.00976.13933.01432l.05794.00618.11328.01172.06055.00619c.04817.00488.09049.00911.13867.01432l.06966.00684c.04167.00455.08464.00878.12695.013l.07357.00748.10156.01042.06511.00651.14.014.06641.00651.12174.01237.08594.00846.09375.00944.07292.00716.13476.013.06966.00684.12631.01237.08138.00781.08919.00879.07812.00749.13152.01269.07421.00717.11.01041.0944.00912.095.00879.08138.00781.12045.01139.08073.00749.13606.01269.056.00521.10873.01009.0651.00619.13932.01269.069.00619c.04037.0039.08464.00781.125.01139l.08138.00749.10352.00944.0599.00521c.04882.00455.095.00879.14322.013l.06967.00618c.04492.00391.08854.00782.13281.01205l.07552.00651c.0306.0026.06055.00521.09049.00814l.08073.00716c.04232.00358.08789.00748.13021.01139l.07162.00618.12565.01075.07942.00716.10092.00846c.02929.00261.05729.00521.08658.00749l.11459.00976.082.00717.13346.01139.06641.00553.099.00847.07812.00651.12956.01074.069.00586.12565.01042.08594.00716.09765.00781.07943.00651.12956.01074.06836.00554c.04622.00358.095.00748.14193.01139l.06575.00521.099.00814.08008.00618c.04232.00358.08463.00684.1276.01009l.07292.00586.13737.01074.06706.00521c.03645.00293.07161.00586.10807.00846l.07031.00554.13412.01042.069.0052.14713.0114.05078.0039.11849.00879.05794.00456.14519.01107.06575.00488.13216.00977.08073.00586.10417.00781.0651.00488.14453.01042.06316.00455.14648.01075.05859.00423.11459.00814.05664.00423c.04948.00358.099.00683.14778.01041l.06381.00456c.04882.00358.0983.00684.14778.01042l.058.00423.12109.00814.05208.0039c.04948.00326.097.00652.14584.0101l.07161.00488.14388.00976.05794.00391c.03711.0026.07943.00553.11654.00781l.056.00391.14974.01009.05989.00391.1504.01009.05989.0039.1211.00782.05013.00325c.05143.00358.10221.00684.15364.01009l.05859.00391.15235.00976.05534.00359.12109.00748.05208.00358.15235.00944.05924.00391c.05209.00293.099.00618.15039.00911l.0599.00391.125.00749.04687.00293.153.00944.06315.0039c.05143.00293.10091.00586.153.00912l.04752.00293.13346.00781.04428.0026c.05143.00326.10546.00619.1569.00944l.05534.00326.15494.00879.05339.00325.13216.00749.04427.00261c.05339.00292.10547.00585.15951.00911l.05208.00293.1595.00879.04428.0026.14062.00782.03906.00227c.05143.00261.10547.00586.15755.00847l.058.00325c.05143.00293.10416.00554.1556.00847l.04817.0026c.04558.00228.0944.00488.14.00749l.03971.00195.15625.00846.06055.00293c.04948.00293.10416.00554.15429.00814l.05274.00293.13086.00651.04427.00228c.054.00293.10872.00553.16341.00846l.04557.00228c.056.00293.10808.00554.16472.00814l.04492.00228c.04818.0026.09635.00488.14453.00716l.03516.00163c.056.00293.10937.00553.166.00814l.04753.00228c.054.00292.10872.00553.16341.00813l.04232.002.14778.00683.03256.00163.16406.00781.05143.00228.16211.00749.04362.002.14974.00684.03125.0013c.054.0026.10872.00521.16341.00749l.054.00227c.05469.00261.10742.00489.16146.00717l.04362.002.14062.00618.043.002.15885.00683.05469.00228c.05078.002.10352.00423.15365.00651l.0638.00261c.04167.00162.084.00325.12565.0052l.05339.00228c.05013.002.10091.00391.15169.00619l.05859.00228.1569.00618.05078.002c.04623.002.09115.00391.13737.00554l.04037.00163.166.00651.04623.00162c.05469.00228.11133.00424.166.00651l.043.00163.15755.00586.02344.001c.05469.00195.11263.0039.16732.00618l.05208.00163.16472.00619.03971.0013.15625.00553.026.001c.05925.002.11524.0039.17448.00618l.03841.00131c.05469.00162.11393.0039.16862.00553l.04753.00163c.05078.002.10091.00358.151.00521l.02734.001.16993.00554.04882.00162.16732.00521.03711.0013c.05274.00163.10742.00326.16081.00521l.02344.00065.17187.00521.04492.0013.16667.00521.04492.0013.1543.00456.02734.00065c.05729.002.11263.00326.16992.00521l.04818.0013.16992.00489.03451.00065c.05273.00162.10807.00325.1608.00455l.026.00065.17317.00489.04167.001c.05534.00163.11458.00293.16927.00456l.04427.001c.05534.00163.10612.00293.16146.00423l.01888.00033c.0599.00162.11849.00325.17774.00455l.03906.001.17383.00423.03515.001.17123.0039.01367.00033c.0612.00163.11719.0026.179.00423l.03711.00065c.05925.00163.11654.00261.17644.00391l.0332.001.17187.00359.015.00032c.05534.0013.11523.00261.17057.00358l.054.0013.166.00326.03972.001.16341.00293.02083.00065.17969.00325.0345.00065c.05925.0013.11524.00228.17513.00326l.041.00065c.05534.001.11.00228.16536.00293l.01823.00032c.0573.00131.1198.00228.17774.00326l.03971.00065.17578.00293.03321.00033.17057.00293.01823.00032c.05729.00065.11849.00163.17643.0026l.041.00066.17122.00227.04427.00066c.056.001.10807.00162.16341.00227l.02214.00033c.05794.001.11393.00163.17187.00228l.04558.00065.17578.00228.02929.00032.17644.002.015.00032.17969.002.03711.00032.17317.00195.04493.00066c.05533.00032.11263.001.16862.00162h.013c.05989.00065.11849.0013.17838.00163l.043.00033c.05794.00065.11523.0013.17318.00162l.03776.00033.17448.0013.01172.00033c.05989.00032.11979.00065.17968.0013l.03907.00032.17513.001.03776.00033.18164.001h.00325c.06055.00065.11979.00065.17969.001l.04427.00032.17578.001h.03516l.18034.001h.00586c.0625,0,.12109.00032.18359.00065h.03581l.17513.00065h.04427l.17252.00033h.01433c.06054.00032.11849.00032.17838.00032h.03841l.17774.00033h.22135a349.02538,349.02538,0,0,0,42.76042-2.69564h0l.14128-.01758.03776-.00456.10612-.01334.04362-.00521c.04492-.00586.08789-.01107.13346-.0166.00456-.00065-.00065,0,.0039-.00065.04558-.00554.0918-.0114.13672-.01726l.05339-.00651.08854-.01106.056-.00717.10091-.01269.03516-.00456c.04557-.00553.08919-.01107.13476-.01693l.04753-.00586.09245-.01171.05729-.00749.10286-.013.02995-.00391c.04557-.00553.09245-.01172.13737-.01758l.04232-.0052.10417-.01335.04166-.00553.11068-.014.0306-.00391.14-.01823.03255-.00423.10873-.014.04622-.00586.10612-.014.03321-.00424c.04492-.00585.08919-.01139.13411-.01757l.04948-.00619.0957-.01269.04818-.00619c.03841-.00521.0638-.00846.10286-.01334l.03516-.00489.14063-.01823.02408-.00325.11459-.0153.05013-.00651.099-.013.03776-.00521.13932-.01823.02279-.00326c.03841-.00488.08072-.01074.11914-.01595l.04362-.00553.0983-.01335.04493-.00586.13085-.01757.01172-.00163c.04493-.00586.08854-.01172.13347-.01791l.05013-.00683.09375-.01237.04557-.00651.10286-.01367.06316-.00879c.03841-.00521.069-.00912.10807-.01465l.05534-.00749.08528-.01139.05339-.00749.09831-.01334.04427-.00619.127-.01725.05729-.00781.08919-.01237.04493-.00619.10481-.01432.04037-.00554.13542-.01888.03515-.00488c.03906-.00521.06445-.00879.10287-.01432l.04622-.00651.112-.0153.0293-.00423c.05143-.00716.08789-.012.13932-.01953l.03125-.00424.10872-.0153.043-.00586.097-.01367.05273-.00748.13281-.01856.02344-.00325.11393-.01628.043-.00618c.03841-.00521.07162-.0101.11-.01563l.03385-.00456.138-.01985.02409-.00326c.03841-.00553.07878-.01139.11719-.0166l.03841-.00553.10807-.01563.03972-.00553L279.94141,487l.01757-.00228.11719-.01693.05013-.00716.10287-.015.03776-.00554c.08984-.013.18619-.02669.276-.03971l.04427-.00651.09961-.01465.04622-.00651c.03841-.00586.08138-.012.11979-.01758l.01693-.0026.13867-.02018.03711-.00554.10547-.0153.04688-.00716.08724-.01269.054-.00781c.03841-.00586.0931-.014.13151-.01954l.03776-.00553.10287-.0153.04948-.00749.10221-.015.03386-.00521c.04492-.00651.08658-.01269.13151-.01953l.05013-.00749.09961-.015.03971-.00586.097-.01465.05013-.00749c.03842-.00553.08789-.013.12631-.01888l.05924-.00879.07552-.01139.06771-.01042.07943-.01171.05273-.00814c.03776-.00586.09115-.01367.12956-.01953l.04362-.00684.09961-.015.04622-.00716.0918-.014.05208-.00781.13347-.02051.01953-.00293.11523-.01758.05339-.00814.09179-.01432.04558-.00684c.03841-.00586.07226-.01106.11067-.01725l.05274-.00814.11523-.01758.03386-.0052.10547-.01661.043-.00651.13542-.02083.0013-.00032c.04427-.00717.09505-.015.14-.02181l.03971-.00619.10286-.01628.03907-.00585.112-.01758.0319-.00521c.05143-.00781.08659-.01335.13737-.02149l.0345-.00553.097-.015.05469-.00879.10416-.01628.0319-.00521.13347-.02116.04362-.00683.10091-.01595.041-.00651.10287-.0166.041-.00651.13737-.02181.02084-.00326c.03841-.00618.07747-.0127.11588-.01855l.04232-.00684.10807-.01758.03321-.00521.13541-.02181.03646-.00586.10352-.0166.04427-.00716.10026-.01628.04166-.00683.13868-.02246.00976-.00163c.04427-.00716.07552-.012.12044-.01953l.054-.00879.09766-.01595.03646-.00586c.04427-.00716.09505-.01562.14-.02279l.00911-.00162c.04493-.00717.082-.01335.127-.02084l.04362-.00716.10026-.01627.041-.00684c.08854-.01465.19076-.03158.27995-.04622l.0293-.00489.11653-.0192.0293-.00489.13867-.02311.002-.00032.14648-.02409.01823-.00326c.03776-.00618.08529-.014.12305-.02051l.02994-.00488.28191-.0472.0332-.00553.10807-.01823.03906-.00651.12435-.02116.01237-.002c.05078-.00879.0931-.01595.14388-.02442l.02344-.0039.11393-.01954.04037-.00651c.04427-.00781.08333-.01432.1276-.02181l.00651-.001.14453-.02474.02735-.00456.11067-.01888.04362-.00749.097-.0166.04362-.00748c.04427-.00782.08789-.0153.13281-.02279l.03776-.00651.09766-.01693.054-.00911.0918-.016.04232-.00717.13216-.02311.03971-.00683c.03191-.00554.069-.012.10092-.01726l.04557-.00813.0957-.01661.04427-.00781.13412-.02311.02278-.00391c.03776-.00683.07422-.013.112-.01953l.05078-.00911.10157-.01758.02929-.00521c.08854-.01562.19336-.03385.2819-.04948l.03646-.00651.10091-.01758.04362-.00781.1198-.02116.01822-.00325.13152-.02344.05143-.00911c.02539-.00424.06315-.01107.08854-.01563l.04948-.00879.09049-.016.06576-.01172.11-.01986.054-.00944.084-.01529.05208-.00912.10156-.01823.03581-.00651c.04427-.00781.08659-.0153.13086-.02344l.04492-.00813c.03125-.00554.06836-.012.09961-.01791l.03516-.00618.11783-.02149.02409-.00423.13867-.02506.0306-.00554.10222-.01855.05143-.00944c.03776-.00684.06185-.01107.09961-.01823l.0345-.00619c.05013-.00911.08855-.016.13933-.02539l.01237-.00228.13086-.02376.02408-.00456c.03776-.00683.08138-.01464.11914-.02181l.028-.00488c.0944-.01758.18424-.03385.27865-.05143l.0345-.00619.11133-.0205.0306-.00586.138-.02539.013-.00228c.04427-.00847.08789-.01628.13216-.02474l.01888-.00326.12826-.02409.01953-.00358.28385-.05273.02865-.00521.11914-.02246.02344-.00456c.0944-.01758.19075-.03548.28515-.05338l.02084-.00391.11783-.02213.03581-.00652c.09375-.0179.18294-.03483.27734-.05273l.02474-.00456.11914-.02246.02735-.00521.125-.02376.01693-.00325c.05013-.00944.09114-.01726.14127-.027l.01758-.00326.127-.02409.02344-.00455.13021-.02507.01107-.00195c.05013-.00977.09244-.01791.14257-.02735l.02084-.0039c.03776-.00749.08594-.0166.1237-.02376l.02408-.00489.12761-.02441.01432-.00261.28841-.056.01953-.00358.13607-.02636.00456-.001.293-.057.01627-.00325c.03776-.00716.0905-.01758.12826-.02507l.01823-.00325c.25065-.04916.49088-.09636.74088-.14551l.01237-.0026c.04362-.00847.08659-.01693.13021-.02572l.01888-.00391c.10026-.01953.1888-.03711.28841-.057l.01433-.00293.12955-.02572.01888-.0039.42969-.08562.02214-.00455c.14388-.02865.28971-.058.43294-.08692l.01237-.0026.13411-.027.013-.00293c.10027-.02018.18685-.03743.28646-.05794l.02019-.00391.138-.028.0013-.00033c.09961-.02051.19271-.03939.29232-.05957l.01562-.00325c.04362-.00879.08464-.01726.12826-.02637l.01888-.00358.28125-.058.026-.0052.13411-.02767c.00456-.001-.0039.00065.00065,0,.14974-.03093.29037-.0599.43946-.09082l.01432-.00293.29167-.06088.00325-.00065c.05013-.01041.09636-.01985.14584-.03027l.00195-.00065c.14974-.03093.291-.06055.4401-.0918l.01237-.0026c.09961-.02084.19141-.04037.29037-.0612l.00716-.0013c.04948-.01074.08919-.01888.13867-.0293l.01042-.00228c.14323-.03027.28841-.06087.431-.09147l.02278-.00488.4336-.09212c.00455-.001-.002.00032.0026-.00065.14909-.03191.293-.06283.44141-.09473l.00781-.00163c.49609-.10677.97721-.21126,1.47135-.31966l.01563-.00358c.44531-.09766.88281-.19434,1.32682-.29362h.00065c.14779-.0332.29362-.06576.44206-.099.00456-.001-.0013,0,.00391-.001.19661-.04427.38671-.08691.584-.13151l.00781-.00195c.29558-.06673.58594-.13281.88086-.20052l.00391-.001c.09831-.02246.1901-.04329.28841-.06608l.01367-.00293.13737-.0319.002-.00032c.14779-.03386.28516-.06576.4323-.09994l.01757-.0039.43034-.09994.00586-.0013.13412-.03125.01367-.00326c.09831-.02278.1888-.04394.28646-.067l.00911-.002c.29427-.069.58008-.13639.8737-.20573l.00781-.00195c.34245-.08105.67643-.16048,1.01823-.24251l.00651-.00163c62.63281-15.02051,114.72136-45.03613,139.724-79.2985.097-.13347.19336-.26758.28776-.402q.17187-.23193.3405-.46777a99.35819,99.35819,0,0,0,5.74349-8.98959l.00455-.00814.03516-.06217.00846-.01465.03386-.06087.00716-.01237c.01107-.02051.02278-.041.0345-.06152l.00651-.0127q.09669-.17187.19141-.34342l.00781-.014.03125-.05632.01172-.02116c.01042-.01855.02018-.03613.02995-.05468l.01107-.01888.0306-.05664.01041-.01921c.01107-.01921.02149-.03809.0319-.05729l.00651-.01237.15235-.278.002-.0039.03255-.05957.00977-.01758c.00911-.0179.01888-.03548.02864-.05339l.01368-.02571c.00911-.016.01757-.0319.026-.04785l.01562-.02832.02735-.05111.01106-.02051.0306-.05631.00716-.01335q.07324-.13672.14649-.27376l.00456-.00879.0306-.05729.01041-.01986.02735-.05111.015-.02832.02539-.04752.01432-.02735.0267-.05013.01367-.02637.02669-.0498.013-.02506.02735-.05176.00846-.01693.06445-.12174.00391-.00814.026-.04916.01562-.03027.02084-.03971c.00521-.01042.01432-.02832.02018-.03841l.02148-.04135.01823-.0358.02149-.041.01823-.03548.02278-.04362.01758-.03418.02149-.04134.01823-.03581.02278-.04394.002-.00391c.02149-.04069.04232-.08138.06316-.12207l.01106-.02148.02214-.043.01888-.03776.01953-.03776.01953-.03874.02018-.03971.02019-.03907.01953-.03841.01953-.03874.02018-.03938.02018-.04069.01888-.03679.02149-.042.01823-.03581.03776-.07584.01041-.02084c.00912-.01725.02019-.03938.02865-.05664l.01693-.03353.02213-.04459.01693-.03418.02214-.04362.01757-.03581.02214-.04427.01627-.03223.02279-.0459.01693-.03417.02278-.04558.01563-.03157.02539-.05176.01367-.027c.013-.02767.02474-.05078.03841-.07812l.00586-.0127.03125-.06315.01693-.03418.02148-.0446.01628-.0332.02279-.0459.015-.03157c.00716-.01368.01758-.03581.02409-.04948l.01432-.029.02474-.05013.01367-.02865.0267-.05534.01106-.02246c.0267-.055.05079-.10482.07683-.15983l.0026-.00456c.01107-.02409.02344-.04915.03516-.07324l.01041-.02181.028-.05794.01042-.02214c.00976-.02083.01757-.03743.028-.05827l.01042-.02213.028-.05827.00977-.02083.028-.05957.01042-.02116c.03711-.0791.07617-.16179.11393-.24089v-.00065l.03646-.07747.00781-.01693.03-.0638.00781-.01693.03-.06315.00846-.01823c.00912-.02083.02019-.04362.03-.06413l.00651-.0153.03321-.07063.0039-.00814c.05078-.11035.09961-.21582.14974-.32585l.00456-.00944c.00976-.02051.02213-.04883.0319-.06966l.00716-.0153.03-.06641.00651-.014c.01107-.02409.02148-.04655.0319-.07064l.00391-.00814.0345-.0765.00261-.00455c.04948-.11036.0983-.21778.14713-.32813l.00195-.00423.03581-.07975v-.00065q.56348-1.26222,1.07422-2.5254a32.019,32.019,0,0,0-29.668-43.97428Z" style="fill:#69341c"/><path d="M324.77083,298.66667a327.43727,327.43727,0,0,0-40.14583,2.54166h0c-.08333.01042-.166.02051-.25.03093l-.0332.00423-.23568.0293-.04492.00553-.22852.029-.05143.00651-.22656.02832-.04818.00619c-.07747.00976-.1569.01985-.23437.02995l-.026.00325-.22526.02865-.03841.00488-.22851.02962-.05274.00684-.22005.02832-.0599.00781c-.07356.00944-.14713.01921-.2207.02865l-.05338.00716-.22461.02929-.04623.00619-.20963.02767-.03907.00488c-.07487.01009-.14518.01921-.22.0293l-.06315.00846-.21029.028-.07031.00944c-.06771.00879-.13672.01823-.20442.02734l-.07683.01042c-.069.00911-.13476.0179-.20377.02734l-.07032.00944c-.05924.00814-.11653.01595-.17578.02376l-.09245.0127-.17838.02441-.06836.00944-.20443.028-.07747.01074c-.06641.00911-.13216.0179-.19792.027l-.082.01139c-.06445.00912-.13021.01823-.19466.027l-.08724.01237-.15885.02181-.11263.016c-.05014.00716-.10157.01432-.1517.02116l-.10026.01432c-.056.00781-.11458.01595-.17057.02409l-.09635.01335c-.0599.00879-.11915.01692-.17969.02571-.03711.00521-.06315.00879-.10026.01433-.06055.00846-.11979.01692-.18034.02571-.03711.00521-.0612.00847-.09831.014l-.151.02148c-.03711.00554-.08529.01237-.1224.01758l-.13867.02018c-.043.00619-.08659.01237-.13021.01888-.04752.00684-.09179.013-.13932.02019l-.10417.015-.17252.02539-.10807.01563-.16862.02474-.11394.0166-.1263.01888-.153.02246-.10157.015-.181.027-.09505.014c-.05534.00814-.11263.01693-.168.02506l-.11132.0166-.12045.01823-.16341.02442-.112.01693-.127.0192-.15951.02409-.09635.01465-.17708.027-.10092.01562c-.06119.00912-.11132.01693-.17252.02637-.03516.00521-.071.01074-.10547.01627l-.13867.02116-.138.02116c-.03646.00586-.0892.014-.12631.01953l-.10677.01661c-.06119.00976-.10937.01725-.17057.02669l-.08984.014c-.06771.01041-.12565.01953-.19336.03027l-.07487.01172c-.07357.01139-.13867.02148-.21159.0332l-.06641.01042c-.07942.01237-.15885.02506-.23893.03776l-.03711.00586c-.14062.02213-.2845.04524-.42513.06738l-.04557.00749c-.07943.01269-.16211.02571-.24154.03873l-.03971.00619-.24349.03906-.04557.00749c-.08529.014-.16993.02767-.25586.04134l-.02344.00391c-.14649.02376-.28711.04654-.43359.07063l-.00521.001-.276.04525-.03516.00553c-.08529.014-.16276.027-.24805.041l-.03646.00618c-.09179.015-.17773.0293-.26888.04427l-.01041.002c-.24349.04036-.48047.08007-.72331.12076l-.01042.002-.28255.04752-.00391.00065a338.28474,338.28474,0,0,0-49.09375,12.0778,21.33325,21.33325,0,0,0,13.35417,40.52279,300.06565,300.06565,0,0,1,56.68294-12.55273,284.74588,284.74588,0,0,1,34.89323-2.21713,21.33333,21.33333,0,1,0,0-42.66666Z" style="fill:#a77554"/><path d="M324.58594,234.666q-.09375,0-.1875.001a393.08148,393.08148,0,0,0-47.64,3.01758c-49.58593,6.12858-96.82291,20.91081-136.60351,42.749A21.333,21.333,0,1,0,160.6862,317.835a305.22117,305.22117,0,0,1,45.41211-20.11556l.0013-.00032c.22331-.07878.44531-.15658.66927-.23471l.02279-.00813c.08268-.029.16276-.05664.24544-.08562l.01823-.00651c.13411-.04654.26627-.09277.40039-.13932l.00781-.0026c.08268-.029.16927-.05892.25261-.08757l.02669-.00911c.08268-.02865.16276-.05664.24609-.08529l.01758-.00618c.13151-.04525.265-.09115.39714-.13672l.02474-.00847c.07812-.027.15885-.05468.237-.08138l.0293-.01009.39128-.13379.03711-.013c.07617-.02571.15364-.05208.22916-.07812l.03321-.01107c.07552-.02572.15234-.05208.22851-.0778l.03711-.01237c.12956-.04427.25391-.08626.38347-.13021l.05533-.01888.19987-.06738.0612-.02051c.0612-.02083.11654-.03939.17839-.06022l.08008-.027.11458-.03841.07877-.02637c.056-.01888.11784-.03971.17448-.05859l.07813-.026.16471-.05534.0944-.03125.10352-.03483c.04622-.0153.10417-.03451.14974-.04981l.10351-.0345.10222-.03386.14258-.0472c.0345-.01171.0664-.02213.10091-.03352.03711-.01237.07031-.02344.10742-.03549.04557-.0153.10286-.03418.14909-.04948l.08984-.02994c.05208-.01693.09636-.03158.14779-.04851l.10742-.03548c.04036-.01334.06836-.02246.10807-.0358l.13021-.04265c.04037-.01334.07813-.02571.11849-.03874l.09505-.03157c.058-.01888.10287-.03353.16016-.05241l.08789-.02865.14258-.04654c.0319-.01042.067-.02214.09961-.03256.04036-.013.08463-.02767.125-.041l.08528-.02735.166-.05436.08463-.02734.17058-.05534.07682-.02507.13281-.043c.03516-.01107.069-.02214.10352-.03353l.14323-.0459.07877-.02572c.05795-.01855.11328-.03613.17058-.055l.08073-.02572c.05729-.01855.11783-.03808.17578-.05664l.05859-.01855c.05208-.01693.09961-.0319.15169-.0485l.06641-.02149.18424-.05892.06381-.02018.18424-.05892.069-.02214c.05209-.0166.10873-.0345.16081-.05078l.06055-.01953.17187-.05436.06771-.02148.18229-.058c.02279-.00683.04427-.01367.06641-.02083l.1875-.05925.054-.01692.166-.05241.05013-.01563.1901-.05989.0625-.01953c.06381-.02019.12826-.04037.19206-.06022l.05208-.01628.19076-.05957.03385-.01074c.06446-.01986.13282-.04134.19727-.0612l.04232-.01335.20182-.06282.04818-.015c.07031-.02181.13411-.04166.20377-.06315l.03646-.01139c.0586-.0179.12826-.03971.18685-.05762l.03906-.012c.06446-.01986.14388-.0446.20769-.06413l.03776-.01172c.06966-.02148.14257-.04394.21289-.06543l.0319-.00976c.14583-.04493.29557-.09082.4414-.13575l.03321-.00976c.06966-.02149.14388-.04395.21354-.06543l.03125-.00944c.07031-.02149.153-.04655.22265-.068l.00912-.0026.235-.07129.00066-.00032.224-.068.03-.00879c.07031-.02148.14844-.04524.21875-.0664l.02409-.00716c.15234-.04623.31576-.09506.4681-.141l.00326-.001c.07617-.02311.15559-.04688.23242-.06966l.01757-.00554c.32357-.09668.63477-.18945.95834-.28548l.00651-.002a367.77766,367.77766,0,0,1,55.0957-11.78386h.00065c.35417-.04785.70508-.09505,1.0599-.14192l.00716-.001c.26432-.03483.52214-.06868.78711-.10319l.013-.002.25521-.03288.013-.002c.17448-.02246.33854-.04362.51237-.06576l.01888-.0026.25065-.0319.01888-.00228c.084-.01075.17057-.02181.25456-.03223l.00651-.001c.084-.01041.16992-.02148.25456-.03222l.01041-.0013.24219-.03028.04036-.00521c.07748-.00944.15625-.0192.23373-.029l.03711-.00456.24349-.03027h0a349.02535,349.02535,0,0,1,42.76041-2.69564h.2806l.05925.00033h.138c.03581,0,.07292,0,.10937.00032h.03646c.04688,0,.08919,0,.13542.00033h.04557l.09375.00033h.05664l.08594.00032.06055.00033.082.00032h.05729l.13021.00065.05924.00033.084.00032.06185.00033.07682.00033.06575.00032.07552.00033.06576.00065c.041,0,.08724.00032.12826.00065l.07942.00032.05143.00033.0905.00065.04427.00033c.0319.00032.0638.00065.09505.00065l.02474.00032q1.27052.00928,2.53451.02865c.05534.00065.112.00065.16731.00065.11654,0,.23373-.001.35027-.0026.21744.01074.43684.01822.65625.02246,26.89778.514,51.321,4.44173,71.90559,11.19856l.00066.00033c.15755.05176.30859.10156.46614.15365l.00586.00195c.123.04069.24479.08138.36719.12207l.00521.002.09049.02995.00326.0013.276.09245.00195.00065.08138.02734.01823.00619.08268.028.00977.00326c.11979.04036.24088.08138.36068.12207l.00911.00325.08659.0293.00716.00228c.09245.03158.18034.06152.27279.09342h.00065l.08528.0293.013.00456.084.029.00976.00293c.0892.03092.179.06185.26823.09277l.00261.001.07812.02669.02865.01009c.02409.00814.04948.01726.07422.02539l.01432.00521c.08464.0293.16732.05827.252.08757l.01954.00683.07356.02572.02735.00944.07422.026.01432.00521c.08463.0293.16732.05827.252.08822l.01823.00651.07617.02669.02409.00846c.02409.00847.05143.01791.07552.0267l.01693.00585c.07943.028.16406.058.24349.08627l.02669.00944.06771.02409.03711.013.06315.02246.03451.01237c.07682.02734.15429.055.23046.08235l.02409.00879.06966.02474.03321.012.069.02474.01172.00423c.04752.01725.09635.0345.14388.05176l.0319.01172.06315.02246.04232.0153.05859.02148.03971.014c.07357.027.14584.05306.2194.07975l.03386.01237.0651.02376.03711.01335.0599.02181.04427.01628.05859.02148.0931.03418.04883.0179.04948.01791.05924.02181.043.01595.05925.02181.03711.01367c.07356.027.14778.05436.22135.0817l.03.01107.069.02539.03125.01172.06315.02344.04362.01628c.03516.01334.07031.026.10547.03938l.04362.01595.05664.02116.04232.016.05924.02214.04427.0166.058.02148.03776.01433.11067.04166.041.0153.056.02116.04492.01693.05924.02246.04037.015.05924.02247.03907.015.10547.03971.04687.01791.05664.02148.04037.0153.06119.02344.04232.016.05534.02116.0612.02344.07747.02929.054.02084.05273.02018.04623.0179.05794.02214.04492.01757c.01888.00717.03255.012.05078.01954l.07227.02767.06445.02473.0612.02377.04362.01692.05664.02181.04557.01758.0612.02377.04232.01627c.02995.01172.06315.02442.09245.03613l.05013.01921.04947.01953.05209.02018.04883.01921.05338.02083.05469.02116.04167.0166c.02929.0114.0651.02507.0944.03679l.04492.01758.05729.02246.04948.01953.04492.0179.05729.02246.043.01693.08659.03418.05925.02344.05013.01985.04947.01953.05209.02084.04427.01758.05859.02311.04753.01888.05989.02376.07943.0319.05078.02018.04818.01954.05339.02115.04752.01888.04948.01986.06445.026.0625.02507.06511.026.04622.01855.05534.02247.04362.01757.0599.02442.04166.0166.07683.03125.05013.02018.06575.02669.041.01693.0638.02572.03711.0153.06836.02767.03255.01334.09961.04069.00846.00358.09245.03776.0293.01205.07161.0293.03386.01367c.02148.00911.04492.01888.067.02767l.03646.015.09766.04036.015.00619.08268.03418.03581.01465.06641.02767.03515.01432.07748.03223.02148.00879.10091.042.01888.00781.08008.03353.03386.014.069.029.03125.01269.07747.03288.02409.00977c.03255.01367.06706.028.099.04166l.02083.00847c.02474.01074.05469.02311.08008.03385l.02734.01139.07813.03288.02474.01042.082.03483.02018.00846c.03255.01367.06445.02735.097.04069l.02929.01237.071.03028.03385.01432.06966.02962.02995.0127c.02474.01074.05534.02376.08073.03418l.02995.013.08789.03711.02734.012.07162.03027.03255.014.07422.0319.02474.01042c.0638.02767.13541.05827.19922.08594l.02473.01041.07683.03321.02734.01172.08268.0358.01563.00651.10156.04427.00912.00391.09244.04.02084.00911c.02539.01075.05534.02377.08008.03483l.02343.0101.08529.0371.01562.00652c.03516.01562.06576.029.10092.04427l.01041.00455.0892.03907.02213.00976.08008.03516.02344.01009.08528.03743.01433.00619.0983.04329.02344.01042.07747.03418.02605.01139.07617.03386.02278.01009c.06706.02962.13672.06054.20313.09017l.00391.00162.09505.04232.01758.00782c.028.01269.05859.026.08658.03841l.01563.00716.20247.09049.01172.00521c.03125.014.05925.02669.09115.04069l.013.00619.0957.043.00391.002c.07031.03125.138.06185.20768.09342l.00781.00358c.03125.01433.0625.028.09375.04232l.01172.00521c.03125.01432.0625.02865.09375.04264l.00781.00358.20443.09278.00977.00455.0957.04362.00586.00261c.10026.04622.20768.09505.30794.14127l.00977.00424.09049.042.013.00586c.10026.04622.20118.09277.30144.13932l.01627.00749c.02735.01269.0599.02767.08724.04069l.01107.00488c.10351.04818.20052.09342.30338.1416l.01042.00456c.0306.01465.0651.0306.0957.04492l.00261.0013c.10286.04818.19922.09343.30208.14193l.01758.00814.08659.041.01107.00521c.09961.04688.20247.09571.30143.14258l.00976.00488c.03386.01628.06185.0293.09636.04558l.002.0013c.099.04687.20182.09635.30078.14355l.01433.00684c.13281.06348.26432.127.39583.19075l.01367.00651c.09831.0472.19792.096.29622.14356l.01107.00553c.02735.013.05729.02767.084.041l.01823.00879c.03059.01465.0625.03027.09309.04524l.00131.00066q.10155.0498.20312.09928l.00065.00033.097.04785.00716.00358c.13477.06608.26628.13086.40039.19726l.00391.002q.15039.0747.30078.14974l.0013.00065.09766.04883.0039.002c.60677.30338,1.20052.60579,1.79753.91536h0A102.93478,102.93478,0,0,1,449.9349,315.0918l.00325.00325c.0918.08854.181.17513.27214.26367l.002.002a21.33324,21.33324,0,1,0,29.77083-30.56348c-31.89258-31.06608-84.57161-48.846-148.33333-50.06478-.13867-.0026-.278-.0039-.416-.0039-.04882,0-.0983,0-.14648.00032q-.38379-.0166-.77018-.01953l-5.23112-.04c-.11133-.00163-.22136-.0026-.33334-.0026h0c-.05533-.00033-.11132-.00065-.16666-.00065Z" style="fill:#3d180b"/><circle cx="266.66667" cy="416" r="10.66667" style="fill:#4d2100"/><circle cx="245.33333" cy="330.66667" r="10.66667" style="fill:#69341c"/><circle cx="373.33333" cy="373.33333" r="32" style="fill:#69341c"/><circle cx="373.33333" cy="288" r="10.66667" style="fill:#4d2100"/><circle cx="160" cy="373.33333" r="10.66667" style="fill:#69341c"/><circle cx="266.66667" cy="224" r="10.66667" style="fill:#4d2100"/><circle cx="213.33333" cy="256" r="21.33333" style="fill:#3d180b"/><circle cx="277.33333" cy="64" r="21.33333" style="fill:#3d180b"/><circle cx="320" cy="149.33333" r="21.33333" style="fill:#4d2100"/></g></svg>